<?xml version="1.0" standalone="no"?>
<!DOCTYPE svg PUBLIC "-//W3C//DTD SVG 1.1//EN" "http://www.w3.org/Graphics/SVG/1.1/DTD/svg11.dtd" >
<svg xmlns="http://www.w3.org/2000/svg">
<metadata></metadata>
<defs>
<font id="utm_swiss_condensedbold" horiz-adv-x="942" >
<font-face units-per-em="2048" ascent="1638" descent="-410" />
<missing-glyph horiz-adv-x="471" />
<glyph horiz-adv-x="2048" />
<glyph horiz-adv-x="2048" />
<glyph unicode="&#xd;" horiz-adv-x="467" />
<glyph unicode=" "  horiz-adv-x="471" />
<glyph unicode="&#x09;" horiz-adv-x="471" />
<glyph unicode="&#xa0;" horiz-adv-x="471" />
<glyph unicode="!" horiz-adv-x="550" d="M147 959v458h254v-458l-49 -588h-158zM153 0v257h241v-257h-241z" />
<glyph unicode="&#x22;" horiz-adv-x="623" d="M74 809v514h176v-514h-176zM374 809v514h176v-514h-176z" />
<glyph unicode="#" horiz-adv-x="1449" d="M41 374l70 184h260l79 222h-275l68 185h273l136 382h204l-135 -382h223l136 382h203l-136 -382h261l-68 -185h-258l-77 -222h266l-65 -184h-268l-136 -383h-203l136 383h-224l-137 -383h-203l134 383h-264zM571 556h231l79 224h-229z" />
<glyph unicode="$" d="M68 408v36h224l-1 -22l-1 -21q0 -96 30.5 -149t98.5 -65v417q-181 100 -258.5 201.5t-77.5 238.5q0 159 86 254q45 49 105.5 75.5t135.5 26.5v126h104v-128q156 0 241 -88q83 -85 83 -251v-27h-218v20q0 76 -30.5 122.5t-82.5 46.5v-376q208 -107 285.5 -206.5 t77.5 -246.5q0 -181 -92 -283q-48 -52 -113.5 -81.5t-150.5 -29.5v-183h-104v183q-82 0 -146 29.5t-110 83.5q-86 102 -86 297zM307 1072q0 -52 27.5 -95.5t84.5 -81.5l-1 328q-25 0 -46 -11.5t-36 -32.5q-29 -40 -29 -107zM507 187q61 11 93.5 53.5t32.5 113.5 q0 68 -27.5 113t-98.5 92v-372z" />
<glyph unicode="%" horiz-adv-x="1452" d="M83 1082q0 183 66.5 263.5t221.5 80.5q159 0 227.5 -79t68.5 -263q0 -191 -71 -277t-225 -86q-153 0 -220.5 83.5t-67.5 277.5zM268 1075q0 -124 22.5 -167t83.5 -43q59 0 82.5 42t23.5 168q0 117 -24.5 162.5t-86.5 45.5q-54 0 -77.5 -44.5t-23.5 -163.5zM331 -27 l649 1453h137l-650 -1453h-136zM784 331q0 185 67.5 266t220.5 81q157 0 227.5 -80.5t70.5 -264.5q0 -187 -71.5 -273.5t-226.5 -86.5q-154 0 -221 83t-67 275zM971 328q0 -124 22 -168.5t82 -44.5t85 41q23 44 23 170q0 117 -25 163t-86 46q-54 0 -77.5 -44.5t-23.5 -162.5 z" />
<glyph unicode="&#x26;" horiz-adv-x="1240" d="M111 399q0 127 59 223.5t211 211.5q-60 92 -85.5 162t-25.5 135q0 128 83 207t220 79q147 0 227.5 -69.5t80.5 -200.5q0 -109 -50.5 -198t-150.5 -156l170 -292q17 46 25 102q4 24 6.5 57.5t2.5 64.5v23h216q0 -144 -32 -263q-28 -113 -88 -201l167 -284h-280l-47 90 q-57 -57 -132.5 -86t-173.5 -29q-186 0 -294.5 113.5t-108.5 310.5zM358 415q0 -96 55 -163t133 -67q45 0 86 17.5t87 59.5l-231 384q-64 -43 -97 -102t-33 -129zM489 1147q0 -11 6 -27q3 -7 7 -16.5t9 -17.5l62 -115q49 39 75 81.5t26 89.5q0 50 -22.5 77t-67.5 27t-71 -26 q-24 -26 -24 -73z" />
<glyph unicode="'" horiz-adv-x="323" d="M74 809v514h176v-514h-176z" />
<glyph unicode="(" horiz-adv-x="620" d="M130 586q0 237 70 458.5t205 406.5h153q-89 -152 -135 -385.5t-46 -526.5q0 -147 11 -272.5t35 -237.5q46 -219 142 -387h-155q-143 207 -211.5 437t-68.5 507z" />
<glyph unicode=")" horiz-adv-x="620" d="M61 -358q94 166 140.5 387t46.5 510q0 150 -11 280t-35 248q-44 233 -134 384h153q132 -184 203.5 -407t71.5 -458q0 -281 -68 -509t-214 -435h-153z" />
<glyph unicode="*" d="M117 1097l52 163l217 -71v228h170v-228l217 71l52 -163l-214 -70l131 -185l-138 -100l-133 185l-133 -185l-138 100l131 185z" />
<glyph unicode="+" horiz-adv-x="1569" d="M234 471v183h458v469h186v-469h458v-183h-458v-471h-186v471h-458z" />
<glyph unicode="," horiz-adv-x="471" d="M117 0v254h237v-256q0 -117 -63.5 -190.5t-173.5 -84.5v96q58 5 93 50.5t35 115.5v15h-128z" />
<glyph unicode="-" horiz-adv-x="618" d="M85 422v220h449v-220h-449z" />
<glyph unicode="." horiz-adv-x="471" d="M117 0v254h237v-254h-237z" />
<glyph unicode="/" horiz-adv-x="578" d="M-56 -175l531 1626h140l-532 -1626h-139z" />
<glyph unicode="0" d="M81 710q0 125 3.5 218.5t12.5 156.5q16 125 54 185q50 82 126 119t194 37q63 0 108 -8.5t86 -28.5q74 -36 126 -119q37 -60 53.5 -183.5t16.5 -376.5q0 -129 -3.5 -224t-12.5 -158q-13 -122 -50 -184q-52 -90 -128.5 -130.5t-195.5 -40.5q-120 0 -196 40t-128 131 q-35 58 -51 179q-8 62 -11.5 154t-3.5 233zM345 433q0 -169 26.5 -217.5t99.5 -48.5q71 0 98.5 50.5t27.5 228.5v136v383q0 167 -27 216t-99 49t-99 -50t-27 -227v-135v-385z" />
<glyph unicode="1" d="M85 998v168q85 0 152.5 18t118.5 52q96 66 115 190h175v-1426h-249v998h-312z" />
<glyph unicode="2" d="M79 45q0 163 66.5 312t205.5 293l73 72q92 88 122 132q27 39 41 88.5t14 110.5q0 91 -32.5 134t-99.5 43q-70 0 -103 -53.5t-33 -170.5l1 -34l1 -21h-247l-1 25l-1 22q0 221 94.5 324.5t296.5 103.5q190 0 290 -93t100 -269q0 -83 -17.5 -150.5t-56.5 -131.5 q-29 -50 -132 -154l-81 -84q-203 -225 -231 -318h501v-226h-769l-1 22z" />
<glyph unicode="3" d="M75 420l1 28l1 29h247v-17q0 -159 32 -222t111 -63q77 0 109.5 55.5t32.5 199.5q0 143 -39 189t-151 46l-42 -1l-32 -1v185h18q126 0 173.5 42.5t47.5 157.5q0 106 -28 147t-96 41q-66 0 -96 -46q-13 -23 -20.5 -60t-7.5 -90v-34h-246q0 12 -2 20v33q0 182 97 274.5 t286 92.5q176 0 271.5 -95t95.5 -270q0 -119 -41.5 -194t-122.5 -102q99 -25 147.5 -107.5t48.5 -227.5q0 -229 -101.5 -343t-308.5 -114q-196 0 -290.5 109.5t-94.5 337.5z" />
<glyph unicode="4" d="M64 281v226l420 893h269v-908h119v-211h-119v-281h-241v281h-448zM254 486h264v577z" />
<glyph unicode="5" d="M74 419v35h244v-37q0 -124 36 -187.5t108 -63.5q73 0 106 74.5t33 241.5q0 152 -36.5 221.5t-118.5 69.5q-54 0 -89 -31.5t-41 -83.5h-230l38 742h671v-226h-475l-15 -284q37 39 84.5 59t110.5 20q179 0 269 -117.5t90 -351.5q0 -276 -96.5 -402.5t-308.5 -126.5 q-195 0 -287.5 109.5t-92.5 338.5z" />
<glyph unicode="6" d="M83 694q0 123 3.5 216t11.5 156q17 127 53 191q50 87 132 128t206 41q165 0 254.5 -78t89.5 -221v-21h-245v14q0 57 -27 86.5t-84 29.5q-75 0 -106 -66q-15 -31 -23.5 -89.5t-8.5 -138.5l1 -39l1 -42q31 47 81 71.5t119 24.5q163 0 241.5 -109.5t78.5 -338.5 q0 -293 -90 -414.5t-302 -121.5q-114 0 -188 37.5t-126 121.5q-39 63 -55.5 189.5t-16.5 372.5zM341 466q0 -165 29.5 -226.5t102.5 -61.5q72 0 100 54t28 230t-27.5 230t-102.5 54q-71 0 -100.5 -62t-29.5 -218z" />
<glyph unicode="7" d="M77 1167v233h784v-204q-142 -266 -230 -569q-31 -109 -53 -203q-28 -116 -41 -209q-15 -111 -15 -215h-272q0 86 14.5 175t40.5 189q19 75 56 194q90 291 248 609h-532z" />
<glyph unicode="8" d="M85 396q0 168 49 256t158 115q-89 27 -134 104q-21 38 -33 89.5t-12 113.5q0 170 92 260t268 90t268 -92t92 -266q0 -123 -45.5 -195.5t-141.5 -103.5q112 -22 162.5 -106t50.5 -246q0 -227 -94.5 -333.5t-295.5 -106.5q-196 0 -290 102.5t-94 318.5zM343 403 q0 -130 28.5 -177.5t99.5 -47.5q73 0 101.5 51t28.5 195q0 140 -29.5 194.5t-100.5 54.5q-72 0 -100 -53.5t-28 -216.5zM356 1048q0 -105 26 -147t89 -42t90 43.5t27 145.5t-28 145t-93 43q-59 0 -85 -43.5t-26 -144.5z" />
<glyph unicode="9" d="M77 891q0 291 87.5 413t291.5 122q124 0 200.5 -37t127.5 -121q38 -61 55 -188t17 -373q0 -126 -4 -221t-12 -158q-14 -125 -51 -184q-48 -86 -128 -128.5t-195 -42.5q-180 0 -270 78t-90 233v9h246v-14q0 -55 29 -84t83 -29q74 0 104.5 63.5t30.5 236.5v73 q-30 -48 -81 -71.5t-122 -23.5q-163 0 -241 109.5t-78 337.5zM339 938q0 -180 27.5 -232t102.5 -52q72 0 100 59t28 225t-28 225.5t-102 59.5q-71 0 -99.5 -54.5t-28.5 -230.5z" />
<glyph unicode=":" horiz-adv-x="514" d="M140 0v254h235v-254h-235zM140 793v255h235v-255h-235z" />
<glyph unicode=";" horiz-adv-x="514" d="M140 0v254h235v-271q0 -101 -69 -178q-35 -40 -75.5 -61t-90.5 -21v96q58 5 92 50t34 116v15h-126zM140 793v255h235v-255h-235z" />
<glyph unicode="&#x3c;" horiz-adv-x="1569" d="M243 471v183l1084 444v-201l-822 -336l822 -335v-201z" />
<glyph unicode="=" horiz-adv-x="1569" d="M234 273v183h1102v-183h-1102zM234 669v183h1102v-183h-1102z" />
<glyph unicode="&#x3e;" horiz-adv-x="1569" d="M243 25v201l823 335l-823 336v201l1084 -444v-183z" />
<glyph unicode="?" horiz-adv-x="925" d="M100 1036v36q0 182 93.5 280.5t268.5 98.5q167 0 265 -96t98 -264q0 -64 -14 -118.5t-42 -100.5q-34 -57 -104 -137t-92 -111q-32 -43 -48 -95t-16 -114l1 -18l1 -16h-222l-3 26v39q0 51 5.5 93t18.5 79q24 72 86 151l47 57q124 143 124 276q0 74 -29.5 112.5t-84.5 38.5 q-62 0 -93 -44.5t-31 -138.5v-34h-229zM284 0v245h236v-245h-236z" />
<glyph unicode="@" horiz-adv-x="1884" d="M83 478q0 155 48 295t142 252q135 165 326.5 251.5t427.5 86.5q78 0 149 -10.5t142 -32.5q138 -41 239 -118q124 -96 185 -220.5t61 -278.5q0 -151 -60 -279.5t-173 -220.5q-62 -49 -141 -79q-76 -26 -158 -26q-95 0 -146 39.5t-51 112.5q-50 -77 -116.5 -113.5 t-157.5 -36.5q-145 0 -221 79.5t-76 233.5q0 219 128.5 368.5t316.5 149.5q72 0 127 -30.5t90 -89.5l48 90h164l-135 -550l-5 -22l-1 -16q0 -31 22 -49q23 -16 65 -16q20 0 36.5 4t37.5 15q39 18 74 51q78 73 119.5 172t41.5 217q0 219 -170.5 362t-440.5 143 q-130 0 -242 -31t-202 -94q-156 -104 -240.5 -262.5t-84.5 -344.5q0 -280 190.5 -450t508.5 -170q150 0 292.5 44.5t263.5 131.5l75 -108q-139 -103 -299 -157.5t-328 -54.5q-178 0 -325 45q-74 22 -139 54t-124 77q-142 110 -213 256.5t-71 329.5zM699 408 q0 -83 37.5 -127.5t108.5 -44.5q75 0 138.5 57.5t86.5 150.5l50 200q-11 75 -53 114t-108 39q-105 0 -182.5 -114t-77.5 -275z" />
<glyph unicode="A" horiz-adv-x="1030" d="M17 0l319 1417h354l322 -1417h-284l-70 356h-304l-68 -356h-269zM396 569h224l-113 594z" />
<glyph unicode="B" horiz-adv-x="1026" d="M121 0v1417h424q183 0 271 -84.5t88 -260.5q0 -141 -43 -218t-131 -93q99 -14 154.5 -99.5t55.5 -224.5q0 -225 -94.5 -331t-293.5 -106h-431zM377 201h109q102 0 143.5 50t41.5 175q0 129 -45 177.5t-170 48.5h-79v-451zM377 842h89q99 0 136.5 43t37.5 159 q0 103 -38 142t-144 39h-81v-383z" />
<glyph unicode="C" horiz-adv-x="1032" d="M92 725q0 222 17 350.5t55 190.5q57 97 141.5 141t216.5 44q215 0 313.5 -113t98.5 -360h-256v34q0 116 -37 172t-114 56q-94 0 -129 -78.5t-35 -431.5q0 -381 33.5 -465t128.5 -84q88 0 123.5 65t35.5 240v19h256l1 -28l1 -27q0 -247 -103 -365.5t-317 -118.5 q-103 0 -174.5 25.5t-124.5 82.5q-71 71 -101 202t-30 449z" />
<glyph unicode="D" horiz-adv-x="1107" d="M121 0v1417h424q128 0 205.5 -22t127.5 -72q74 -72 105 -184q14 -54 22.5 -141.5t8.5 -202.5q0 -306 -21 -428t-70.5 -209.5t-138 -122.5t-300.5 -35h-363zM379 209h117q90 0 125 12.5t57 44.5q36 55 52 152.5t16 306.5t-18.5 302t-62.5 140q-22 23 -59.5 33t-113.5 10 h-113v-1001z" />
<glyph unicode="E" horiz-adv-x="932" d="M121 0v1417h727v-236h-465v-327h433v-225h-433v-390h476v-239h-738z" />
<glyph unicode="F" horiz-adv-x="920" d="M121 0v1417h740v-232h-476v-335h449v-226h-449v-624h-264z" />
<glyph unicode="G" horiz-adv-x="1109" d="M92 752q0 214 21.5 339t67.5 192q55 84 147 125t226 41q226 0 335 -108t109 -335v-35h-246v14q0 127 -47.5 192t-141.5 65q-114 0 -157 -89t-43 -468q0 -300 40.5 -401t146.5 -101q105 0 149.5 72.5t44.5 242.5v48h-183v227h437v-773h-178l-20 156q-40 -102 -110 -146 t-194 -44q-221 0 -312.5 169t-91.5 617z" />
<glyph unicode="H" horiz-adv-x="1127" d="M121 0v1417h262v-556h361v556h262v-1417h-262v642h-361v-642h-262z" />
<glyph unicode="I" horiz-adv-x="505" d="M121 0v1417h264v-1417h-264z" />
<glyph unicode="J" horiz-adv-x="830" d="M23 304v144h241v-167q0 -55 22 -83.5t70 -28.5q50 0 69 32t19 148v64v1004h259v-997q0 -150 -6 -202t-21 -85q-38 -82 -118 -124.5t-204 -42.5q-164 0 -247.5 85t-83.5 253z" />
<glyph unicode="K" horiz-adv-x="1028" d="M121 0v1417h258v-592l322 592h294l-358 -588l381 -829h-290l-255 586l-94 -156v-430h-258z" />
<glyph unicode="L" horiz-adv-x="919" d="M121 0v1417h264v-1176h476v-241h-740z" />
<glyph unicode="M" horiz-adv-x="1424" d="M121 0v1417h397l194 -917l194 917h398v-1417h-252l5 1257l-264 -1257h-162l-264 1257l7 -1257h-253z" />
<glyph unicode="N" horiz-adv-x="1123" d="M121 0v1417h271l369 -991l-8 991h250v-1417h-270l-371 993l7 -993h-248z" />
<glyph unicode="O" horiz-adv-x="1105" d="M92 708q0 230 20.5 362t66.5 201q61 97 147 138.5t226 41.5q138 0 224 -41t150 -139q43 -67 65 -204q10 -64 15.5 -155t5.5 -204q0 -229 -21 -362t-65 -201q-63 -97 -148.5 -138t-225.5 -41q-138 0 -224 41.5t-149 137.5q-44 68 -66 203q-10 65 -15.5 156t-5.5 204z M362 708q0 -350 40.5 -440t151.5 -90q107 0 147.5 88.5t40.5 441.5q0 355 -40.5 444.5t-149.5 89.5t-150 -90q-20 -45 -30 -154.5t-10 -289.5z" />
<glyph unicode="P" horiz-adv-x="1026" d="M121 0v1417h458q209 0 301 -94q46 -47 69 -123t23 -184q0 -211 -97.5 -313t-299.5 -102h-192v-601h-262zM375 797h111q122 0 172 48t50 165q0 118 -45 163.5t-174 45.5h-114v-422z" />
<glyph unicode="Q" horiz-adv-x="1105" d="M92 708q0 229 21 361.5t66 201.5q61 97 147 138.5t226 41.5q138 0 224 -41t150 -139q43 -67 65 -205q10 -65 15.5 -154.5t5.5 -203.5q0 -238 -21 -372t-65 -191l158 -158l-135 -136l-161 162q-23 -11 -48.5 -20t-57.5 -15q-62 -12 -130 -12q-138 0 -224 41.5t-149 137.5 q-44 69 -65.5 206t-21.5 357zM362 708q0 -345 38 -437.5t141 -92.5l28 1q13 0 46 8l-78 79l132 133l56 -58q11 79 13 97.5t2 50.5t2 92t2 77q0 396 -40.5 490t-151.5 94q-109 0 -150 -90q-20 -45 -30 -154.5t-10 -289.5z" />
<glyph unicode="R" horiz-adv-x="1087" d="M121 0v1417h472q215 0 309 -88q47 -43 70.5 -113.5t23.5 -169.5q0 -139 -49.5 -217t-149.5 -94q94 -25 145 -105.5t51 -211.5v-19l7 -187q0 -38 5 -70t15 -59q18 -49 52 -83h-313q-11 36 -17 84q-1 20 -4 61.5t-3 75.5l-4 148v38q0 122 -52.5 168.5t-212.5 46.5h-91v-622 h-254zM375 818h152q114 0 159 46.5t45 164.5q0 104 -49 147t-177 43h-130v-401z" />
<glyph unicode="S" horiz-adv-x="1032" d="M90 413l4 79v6h264v-91q0 -130 32.5 -178t112.5 -48q84 0 127.5 42t43.5 126q0 62 -30 107.5t-132 118.5l-135 96q-173 121 -221 200t-48 199q0 178 105.5 279.5t291.5 101.5q195 0 301 -107.5t106 -309.5l-1 -31l-1 -20h-250v38q0 115 -38 165t-124 50q-64 0 -100 -37 t-36 -104q0 -88 162 -198l3 -2l146 -98q154 -102 209.5 -194t55.5 -234q0 -193 -110 -298t-316 -105q-211 0 -316.5 111t-105.5 336z" />
<glyph unicode="T" horiz-adv-x="908" d="M18 1183v234h872v-234h-304v-1183h-264v1183h-304z" />
<glyph unicode="U" horiz-adv-x="1125" d="M121 439v978h264v-955q0 -163 40 -222t142 -59q100 0 139.5 59.5t39.5 225.5v951h260v-978q0 -141 -15.5 -207t-53.5 -117q-57 -74 -151 -112q-48 -19 -102.5 -28t-120.5 -9q-242 0 -342 105t-100 368z" />
<glyph unicode="V" horiz-adv-x="1030" d="M25 1417h282l211 -1131l190 1131h279l-297 -1417h-347z" />
<glyph unicode="W" horiz-adv-x="1542" d="M34 1417h273l173 -1074l185 1074h219l203 -1095l151 1095h271l-258 -1417h-313l-163 895l-151 -895h-315z" />
<glyph unicode="X" horiz-adv-x="1032" d="M17 0l346 723l-329 694h297l189 -446l192 446h294l-341 -694l351 -723h-298l-206 473l-208 -473h-287z" />
<glyph unicode="Y" horiz-adv-x="1035" d="M17 1417h292l214 -533l212 533h284l-365 -816v-601h-266v601z" />
<glyph unicode="Z" horiz-adv-x="911" d="M56 0v239l498 957h-473v221h753v-218l-491 -960h513v-239h-800z" />
<glyph unicode="[" horiz-adv-x="618" d="M147 -385v1802h378v-157h-146v-1488h146v-157h-378z" />
<glyph unicode="\" horiz-adv-x="578" d="M-56 1451h139l532 -1626h-140z" />
<glyph unicode="]" horiz-adv-x="618" d="M72 -228h149v1488h-149v157h378v-1802h-378v157z" />
<glyph unicode="^" horiz-adv-x="1884" d="M383 827l442 516h232l443 -516h-217l-341 341l-343 -341h-216z" />
<glyph unicode="_" d="M0 -257h942v-187h-942v187z" />
<glyph unicode="`" d="M205 1440h236l160 -262h-115z" />
<glyph unicode="a" horiz-adv-x="913" d="M85 281q0 130 58.5 207.5t235.5 157.5l50 22q144 61 144 144q0 50 -28 77.5t-81 27.5q-67 0 -99 -36t-32 -112v-21h-239q0 179 88 261t282 82q193 0 271.5 -75.5t78.5 -262.5v-600q0 -44 8.5 -80.5t27.5 -72.5h-239q-7 10 -15 36l-12 67q-38 -63 -99.5 -97.5 t-143.5 -34.5q-121 0 -188.5 82.5t-67.5 227.5zM339 302q0 -71 26.5 -104.5t82.5 -33.5q64 0 96.5 56t32.5 168v170q-138 -69 -188 -125.5t-50 -130.5z" />
<glyph unicode="b" horiz-adv-x="915" d="M108 0v1417h246v-443q31 60 82.5 89.5t126.5 29.5q152 0 213.5 -123t61.5 -443q0 -310 -63 -433t-217 -123q-80 0 -133 35.5t-84 104.5v-111h-233zM347 488q0 -200 27 -256.5t101 -56.5q64 0 88.5 63t24.5 291q0 121 -5.5 193t-18.5 103q-24 61 -89 61q-73 0 -100.5 -70 t-27.5 -328z" />
<glyph unicode="c" horiz-adv-x="855" d="M75 532q0 323 80.5 442t279.5 119q176 0 259.5 -88t83.5 -270v-38h-235v24q0 96 -25 139q-12 20 -32 31.5t-49 11.5q-56 0 -82 -41.5t-26 -138.5v-367q0 -55 5.5 -93t18.5 -60q24 -43 82 -43q62 0 86.5 49.5t24.5 186.5v23l232 -1l1 -24l1 -36q0 -199 -83.5 -293 t-261.5 -94q-199 0 -279.5 119.5t-80.5 441.5z" />
<glyph unicode="d" horiz-adv-x="915" d="M77 527q0 321 62 443.5t213 122.5q77 0 127 -29t82 -90v443h248v-1417h-234v111q-30 -70 -84.5 -105t-132.5 -35q-153 0 -217 122t-64 434zM328 548q0 -125 5.5 -201t17.5 -109q24 -63 90 -63q72 0 100 56.5t28 232.5q0 280 -27.5 351t-100.5 71q-63 0 -88 -60.5 t-25 -277.5z" />
<glyph unicode="e" horiz-adv-x="897" d="M77 567q0 196 18.5 278t63.5 137t119 82q38 14 81.5 21.5t94.5 7.5q98 0 170 -30t118 -91q39 -51 57 -134q8 -39 12.5 -104.5t4.5 -154.5v-81h-484l-3 -26v-42q0 -152 28 -213t96 -61q65 0 94.5 50t29.5 159h232l1 -21l1 -20q0 -183 -87 -268t-276 -85q-98 0 -165.5 25 t-111.5 78q-50 59 -73 155q-10 46 -15.5 130.5t-5.5 207.5zM328 696l1 -29h240v45q0 110 -27 151t-94 41q-64 0 -92 -42t-28 -150v-16z" />
<glyph unicode="f" horiz-adv-x="517" d="M34 881v183h96v106q0 136 52.5 194t175.5 58h24.5t29.5 -2h38l27 -3v-185l-13 1l-11 1q-40 0 -58 -17t-18 -54v-99h100v-183h-100v-881h-247v881h-96z" />
<glyph unicode="g" horiz-adv-x="915" d="M77 537q0 310 64 434q31 59 86 90.5t131 31.5q79 0 132 -34.5t85 -105.5v111h234v-979q0 -140 -13.5 -205.5t-45.5 -111.5q-42 -61 -124.5 -93.5t-197.5 -32.5q-158 0 -242 62q-42 31 -64 75t-22 104h244q3 -29 26 -49q25 -17 65 -17q69 0 97.5 43t28.5 157v73 q-30 -60 -81 -89.5t-120 -29.5q-157 0 -220 119.5t-63 446.5zM328 514q0 -110 5.5 -177t17.5 -99q25 -59 90 -59q72 0 100 69t28 353q0 175 -27.5 232t-100.5 57q-65 0 -89 -64.5t-24 -311.5z" />
<glyph unicode="h" horiz-adv-x="913" d="M108 0v1417h244v-454q32 60 90 95t129 35q115 0 177.5 -66.5t62.5 -190.5v-836h-238v714q0 98 -21.5 132.5t-74.5 34.5q-66 0 -96 -45q-14 -22 -21.5 -61t-7.5 -97v-678h-244z" />
<glyph unicode="i" horiz-adv-x="456" d="M106 0v1064h245v-1064h-245zM106 1196v221h245v-221h-245z" />
<glyph unicode="j" horiz-adv-x="472" d="M34 -153q57 0 73.5 17t16.5 96v1104h241v-1107q0 -208 -49.5 -262.5t-200.5 -54.5h-14h-12q-9 2 -13 2h-24q-12 3 -18 4v201zM122 1196v221h243v-221h-243z" />
<glyph unicode="k" horiz-adv-x="814" d="M108 0v1417h239v-741l220 388h258l-266 -406l270 -658h-268l-154 426l-60 -95v-331h-239z" />
<glyph unicode="l" horiz-adv-x="456" d="M106 0v1417h245v-1417h-245z" />
<glyph unicode="m" horiz-adv-x="1414" d="M109 0v1064h229v-122q41 83 100.5 117t156.5 34q77 0 135.5 -35.5t83.5 -98.5q48 71 106 102.5t139 31.5q125 0 189.5 -70t64.5 -205v-818h-241v680q0 126 -26 163t-95 37q-63 0 -90.5 -42.5t-27.5 -152.5v-685h-243v692q0 107 -26 147.5t-87 40.5q-66 0 -95.5 -43 t-29.5 -141v-696h-243z" />
<glyph unicode="n" horiz-adv-x="913" d="M108 0v1064h241v-107q37 65 94 100.5t128 35.5q115 0 177.5 -66.5t62.5 -190.5v-836h-238v714q0 95 -24 132.5t-80 37.5q-61 0 -88 -47.5t-27 -158.5v-678h-246z" />
<glyph unicode="o" horiz-adv-x="900" d="M75 532q0 321 83.5 441t291.5 120q210 0 292.5 -119t82.5 -442q0 -321 -82.5 -441t-292.5 -120q-207 0 -291 119t-84 442zM328 518q0 -246 24.5 -302t95.5 -56q74 0 99 52q13 26 19.5 92.5t6.5 177.5v43v61q0 210 -27 262q-24 55 -96 55q-69 0 -95.5 -50t-26.5 -237v-73 v-25z" />
<glyph unicode="p" horiz-adv-x="915" d="M108 -358v1422h233v-111q30 69 85 104.5t132 35.5q153 0 216.5 -122t63.5 -434q0 -322 -61 -444t-214 -122q-76 0 -126 29t-83 90v-448h-246zM347 577q0 -261 27 -329.5t101 -68.5q64 0 88.5 60.5t24.5 295.5q0 117 -5.5 188.5t-18.5 103.5q-24 63 -89 63q-73 0 -101 -57 q-14 -29 -20.5 -90.5t-6.5 -165.5z" />
<glyph unicode="q" horiz-adv-x="915" d="M77 537q0 310 64 434q31 59 86 90.5t131 31.5q79 0 132 -34.5t85 -105.5v111h234v-1422h-248v448q-30 -60 -81.5 -89.5t-127.5 -29.5q-151 0 -213 122.5t-62 443.5zM328 514q0 -110 5.5 -177t17.5 -99q25 -59 90 -59q72 0 100 69t28 353q0 175 -27.5 232t-100.5 57 q-65 0 -89 -64.5t-24 -311.5z" />
<glyph unicode="r" horiz-adv-x="636" d="M109 0v1064h236v-173q49 106 108 153.5t140 47.5v-299l-27 3l-34 1q-78 0 -125 -47.5t-47 -125.5v-624h-251z" />
<glyph unicode="s" horiz-adv-x="828" d="M68 313l1 20l1 21h222v-30q0 -90 27.5 -129.5t93.5 -39.5q51 0 80.5 27.5t29.5 76.5q0 59 -118 139l-47 32l-12 8q-271 185 -271 364q0 141 88 216t256 75q161 0 242 -83q41 -41 61 -102.5t20 -146.5v-22h-217v22q0 78 -29.5 113.5t-92.5 35.5q-45 0 -73 -25.5t-28 -66.5 q0 -40 24.5 -71t108.5 -87l56 -38q268 -177 268 -354q0 -140 -90.5 -218.5t-258.5 -78.5q-174 0 -258 83t-84 259z" />
<glyph unicode="t" horiz-adv-x="512" d="M25 881v183h96v291h246v-291h102v-183h-102v-487v-72q0 -86 16.5 -109t59.5 -23h15l11 1v-191l-84 -7l-47 -2q-125 0 -171 49.5t-46 202.5v638h-96z" />
<glyph unicode="u" horiz-adv-x="911" d="M104 228v836h237v-695q0 -107 24 -146.5t81 -39.5q61 0 87 45t26 157v679h248v-1064h-242v106q-37 -66 -95 -100q-27 -16 -60 -25.5t-69 -9.5q-117 0 -177 66t-60 191z" />
<glyph unicode="v" horiz-adv-x="836" d="M21 1064h261l142 -814l135 814h255l-245 -1064h-301z" />
<glyph unicode="w" horiz-adv-x="1233" d="M25 1064h257l114 -787l120 787h202l143 -798l102 798h245l-205 -1064h-264l-121 633l-96 -633h-270z" />
<glyph unicode="x" horiz-adv-x="823" d="M13 0l280 545l-268 519h280l115 -265l115 265h269l-263 -519l270 -545h-274l-122 284l-123 -284h-279z" />
<glyph unicode="y" horiz-adv-x="836" d="M18 1064h261l147 -768l143 768h249l-277 -1164q-36 -152 -97.5 -204t-195.5 -52h-14q-9 0 -15.5 0.5t-12.5 1.5l-44 5v184h16l23 -1q53 0 77 17t24 55l-3 29l-3 16.5t-4 15.5z" />
<glyph unicode="z" horiz-adv-x="721" d="M40 0v196l359 661h-356v207h633v-178l-371 -677h375v-209h-640z" />
<glyph unicode="{" d="M145 392v192l20 -1l18 -1q110 0 157 54q24 26 36 70.5t12 109.5v230q0 133 21.5 184.5t74.5 85.5q41 21 103.5 33t154.5 12l34 -1l36 -1v-192h-23l-20 1q-91 0 -124.5 -35t-33.5 -150v-220q0 -136 -41 -192.5t-150 -82.5q108 -25 149.5 -81t41.5 -193v-221 q0 -114 32 -148.5t126 -34.5h20l23 1v-192l-36 -1l-34 -1q-90 0 -152.5 11t-105.5 34q-53 31 -74.5 84.5t-21.5 183.5v232q0 124 -47.5 178t-157.5 54l-18 -1z" />
<glyph unicode="|" d="M377 -444v1884h190v-1884h-190z" />
<glyph unicode="}" d="M132 -189l23 -1h20q92 0 125 35t33 148v220q0 137 41.5 193.5t148.5 81.5q-108 24 -149 81.5t-41 193.5v222q0 112 -32.5 147.5t-125.5 35.5l-20 -1h-23v192h62q100 0 163 -11t103 -35q52 -29 74 -84t22 -183v-232q0 -125 47 -178.5t158 -53.5l18 1l20 1v-192h-34 q-115 0 -162 -51.5t-47 -178.5v-232q0 -131 -22 -184.5t-74 -83.5q-41 -21 -103.5 -33t-155.5 -12l-34 1l-35 1v192z" />
<glyph unicode="~" horiz-adv-x="1569" d="M164 385v203q95 64 185.5 97.5t170.5 33.5q108 0 268 -53l3 -1l51 -17q144 -51 221 -51q37 0 77.5 8.5t83.5 25.5q81 32 184 108v-204q-97 -65 -181.5 -96t-167.5 -31q-33 0 -46 1.5t-37.5 6t-43 9t-42.5 12.5l-66 23q-201 69 -306 69q-40 0 -80 -8.5t-84 -26.5 q-86 -34 -190 -109z" />
<glyph unicode="&#xa3;" d="M66 151q88 61 139.5 145.5t51.5 170.5q0 25 -1 35t-4 30q0 18 -4.5 39t-6.5 30h-175v130h117q-41 67 -64 148t-23 167q0 173 108 276.5t290 103.5q190 0 288 -95t98 -279l-1 -37l-1 -24h-236v34q0 107 -36.5 158t-111.5 51q-70 0 -108.5 -51.5t-38.5 -146.5 q0 -64 22 -144t64 -161h268v-130h-223l9 -40l2 -39q0 -85 -51.5 -174t-155.5 -175q51 28 95 41.5t89 13.5q24 0 48 -3.5t69 -14.5q80 -18 116 -18q34 0 71 13.5t84 44.5l54 -205q-45 -32 -103 -50t-121 -18q-64 0 -179.5 27.5t-165.5 27.5q-45 0 -93.5 -13.5t-110.5 -45.5z " />
<glyph unicode="&#xa4;" horiz-adv-x="932" />
<glyph unicode="&#xa5;" horiz-adv-x="1161" />
<glyph unicode="&#xa6;" horiz-adv-x="932" />
<glyph unicode="&#xa7;" d="M72 697q0 90 44 150.5t131 85.5q-54 37 -80.5 91t-26.5 127q0 143 93 221.5t263 78.5q160 0 245.5 -74.5t85.5 -215.5l-1 -15l-1 -15h-230v13q0 63 -26 92q-25 30 -83 30t-83.5 -21t-25.5 -67q0 -77 124 -165l21 -15l138 -97q128 -90 169 -154t41 -154q0 -91 -42.5 -147 t-130.5 -81q59 -34 89 -100.5t30 -166.5q0 -146 -92 -220q-46 -37 -113 -55.5t-161 -18.5q-173 0 -257.5 75.5t-84.5 231.5l1 19v21h234l-1 -14l-1 -15q0 -59 31 -93q31 -31 94 -31q60 0 89 25.5t29 80.5q0 33 -19 60.5t-92 82.5l-228 172q-102 74 -137.5 135.5t-35.5 142.5 zM290 739q0 -71 215 -223l79 -56q32 19 51 47q17 29 17 62q0 28 -16 52.5t-65 60.5l-206 151q-36 -19 -55.5 -43.5t-19.5 -50.5z" />
<glyph unicode="&#xa9;" horiz-adv-x="1569" d="M102 674q0 138 51 261.5t151 225.5q95 96 218 148t262 52q141 0 265 -51.5t221.5 -149t148 -223.5t50.5 -263q0 -139 -50 -260t-150 -219t-226 -151t-259 -53q-136 0 -257.5 52t-222.5 151q-98 96 -150 221t-52 259zM214 676q0 -117 43.5 -219t124.5 -183t186 -124.5 t218 -43.5q115 0 218 43q52 21 99 52.5t89 73.5q80 78 122.5 181.5t42.5 219.5q0 60 -10 113t-33 106q-43 105 -123.5 185.5t-184 124t-220.5 43.5q-119 0 -221 -43q-53 -22 -96.5 -51t-85.5 -72q-81 -82 -125 -187.5t-44 -218.5zM417 671q0 189 100.5 302t270.5 113 q138 0 230 -72q46 -37 71.5 -84t25.5 -105h-173q-7 65 -48.5 100t-109.5 35q-82 0 -131 -75.5t-49 -208.5q0 -135 47.5 -206t139.5 -71q66 0 106.5 38.5t50.5 109.5l177 1q0 -60 -26 -112t-74 -93q-93 -77 -239 -77q-171 0 -270 108.5t-99 296.5z" />
<glyph unicode="&#xad;" horiz-adv-x="618" d="M85 422v220h449v-220h-449z" />
<glyph unicode="&#xae;" horiz-adv-x="1569" d="M102 674q0 94 25 182.5t74 173.5q93 157 246 244t337 87q141 0 266.5 -53t224.5 -153q93 -95 143.5 -219t50.5 -262q0 -141 -51 -265t-149 -219t-224.5 -147t-260.5 -52q-138 0 -263 53.5t-222 151.5t-147 221t-50 257zM214 676q0 -113 42 -216.5t123 -184t186.5 -126 t218.5 -45.5q57 0 108.5 10t105.5 33q105 43 191 124q80 78 124 180.5t44 213.5q0 121 -40.5 224.5t-122.5 187t-186 127.5t-222 44q-115 0 -217 -42q-51 -20 -95 -49.5t-86 -70.5q-81 -81 -127.5 -189.5t-46.5 -220.5zM501 309v759h298q161 0 242.5 -54.5t81.5 -163.5 q0 -74 -44 -127.5t-122 -73.5l170 -340h-206l-145 311h-91v-311h-184zM685 731h91q81 0 119 25.5t38 81.5q0 59 -40.5 86t-125.5 27h-82v-220z" />
<glyph unicode="&#xb6;" d="M86 999q0 145 100.5 235t269.5 90h417v-72h-117v-1256h-94v1256h-134v-1256h-96v679q-156 8 -251 96.5t-95 227.5z" />
<glyph unicode="&#xb7;" horiz-adv-x="467" d="M119 652q0 14 15 30l76 77q16 16 35 16q17 0 37 -18l74 -80q11 -15 11 -27q0 -13 -14 -28l-73 -82q-21 -21 -35 -21q-21 0 -35 16l-82 93q-9 12 -9 24z" />
<glyph unicode="&#xb9;" horiz-adv-x="387" d="M0 1347l166 164h52v-761h-112v551l-31 -30z" />
<glyph unicode="&#xba;" horiz-adv-x="660" />
<glyph unicode="&#xbb;" horiz-adv-x="868" />
<glyph unicode="&#xbc;" horiz-adv-x="1501" d="M52 1176v94q54 0 97 10t75 28q62 36 74 107h109v-799h-157v560h-198zM279 -27l798 1453h144l-801 -1453h-141zM948 156v128l265 500h170v-509h75v-119h-75v-156h-153v156h-282zM1068 271h166v324z" />
<glyph unicode="&#xbd;" horiz-adv-x="1501" d="M52 1176v94q54 0 97 10t75 28q62 36 74 107h109v-799h-157v560h-198zM279 -27l798 1453h144l-801 -1453h-141zM957 25q0 91 42 174.5t130 163.5l48 43q56 46 76 72q16 22 26 50q8 28 8 62q0 50 -21 75q-19 25 -62 25t-64 -30q-20 -33 -20 -97v-29h-155l-1 12l-1 13 q0 124 58 182t187 58q119 0 182 -53q31 -26 48 -63.5t17 -87.5q0 -46 -12 -83q-6 -18 -14.5 -37t-20.5 -38q-18 -27 -82 -84l-53 -48l-10 -11q-118 -116 -134 -168h314v-126h-484l-1 12z" />
<glyph unicode="&#xbe;" horiz-adv-x="1501" d="M47 852l1 15l1 17h154v-10q0 -88 21 -125q21 -35 69 -35q50 0 70 31t20 112q0 80 -24.5 106t-94.5 26l-27 -1l-20 -1v104h13q77 0 107 24t30 87q0 58 -17.5 81.5t-59.5 23.5t-60.5 -25.5t-18.5 -82.5v-20h-155v31q0 101 61 153t181 52q110 0 169.5 -53t59.5 -152 q0 -66 -25 -108.5t-76 -57.5q60 -14 91 -60.5t31 -126.5q0 -129 -64 -192.5t-194 -63.5q-123 0 -183 61.5t-60 189.5zM279 -27l798 1453h144l-801 -1453h-141zM948 156v128l265 500h170v-509h75v-119h-75v-156h-153v156h-282zM1068 271h166v324z" />
<glyph unicode="&#xc0;" horiz-adv-x="1030" d="M17 0l319 1417h354l322 -1417h-284l-70 356h-304l-68 -356h-269zM250 1798h236l160 -263h-115zM396 569h224l-113 594z" />
<glyph unicode="&#xc1;" horiz-adv-x="1030" d="M17 0l319 1417h354l322 -1417h-284l-70 356h-304l-68 -356h-269zM386 1535l160 263h236l-281 -263h-115zM396 569h224l-113 594z" />
<glyph unicode="&#xc2;" horiz-adv-x="1030" d="M17 0l319 1417h354l322 -1417h-284l-70 356h-304l-68 -356h-269zM262 1535l160 263h188l160 -263h-114l-140 138l-140 -138h-114zM396 569h224l-113 594z" />
<glyph unicode="&#xc3;" horiz-adv-x="1030" d="M17 0l319 1417h354l322 -1417h-284l-70 356h-304l-68 -356h-269zM258 1547q18 107 60 160t104 53q19 0 28 -2l28 -5l102 -31l21 -4l23 -1q27 0 44 17t26 52h81q-15 -101 -60 -159.5t-112 -58.5q-16 0 -24 2l-23 5l-112 32l-14 4l-16 2q-29 0 -48 -16.5t-27 -49.5h-81z M396 569h224l-113 594z" />
<glyph unicode="&#xc8;" horiz-adv-x="932" d="M121 0v1417h727v-236h-465v-327h433v-225h-433v-390h476v-239h-738zM211 1798h235l160 -263h-115z" />
<glyph unicode="&#xc9;" horiz-adv-x="932" d="M121 0v1417h727v-236h-465v-327h433v-225h-433v-390h476v-239h-738zM347 1535l160 263h235l-280 -263h-115z" />
<glyph unicode="&#xca;" horiz-adv-x="932" d="M121 0v1417h727v-236h-465v-327h433v-225h-433v-390h476v-239h-738zM223 1535l160 263h187l160 -263h-114l-139 138l-140 -138h-114z" />
<glyph unicode="&#xcc;" horiz-adv-x="505" d="M-14 1798h236l160 -263h-115zM121 0v1417h264v-1417h-264z" />
<glyph unicode="&#xcd;" horiz-adv-x="505" d="M121 0v1417h264v-1417h-264zM122 1535l160 263h236l-281 -263h-115z" />
<glyph unicode="&#xd2;" horiz-adv-x="1105" d="M92 708q0 230 20.5 362t66.5 201q61 97 147 138.5t226 41.5q138 0 224 -41t150 -139q43 -67 65 -204q10 -64 15.5 -155t5.5 -204q0 -229 -21 -362t-65 -201q-63 -97 -148.5 -138t-225.5 -41q-138 0 -224 41.5t-149 137.5q-44 68 -66 203q-10 65 -15.5 156t-5.5 204z M288 1798h235l161 -263h-115zM362 708q0 -350 40.5 -440t151.5 -90q107 0 147.5 88.5t40.5 441.5q0 355 -40.5 444.5t-149.5 89.5t-150 -90q-20 -45 -30 -154.5t-10 -289.5z" />
<glyph unicode="&#xd3;" horiz-adv-x="1105" d="M92 708q0 230 20.5 362t66.5 201q61 97 147 138.5t226 41.5q138 0 224 -41t150 -139q43 -67 65 -204q10 -64 15.5 -155t5.5 -204q0 -229 -21 -362t-65 -201q-63 -97 -148.5 -138t-225.5 -41q-138 0 -224 41.5t-149 137.5q-44 68 -66 203q-10 65 -15.5 156t-5.5 204z M362 708q0 -350 40.5 -440t151.5 -90q107 0 147.5 88.5t40.5 441.5q0 355 -40.5 444.5t-149.5 89.5t-150 -90q-20 -45 -30 -154.5t-10 -289.5zM424 1535l160 263h236l-281 -263h-115z" />
<glyph unicode="&#xd4;" horiz-adv-x="1105" d="M92 708q0 230 20.5 362t66.5 201q61 97 147 138.5t226 41.5q138 0 224 -41t150 -139q43 -67 65 -204q10 -64 15.5 -155t5.5 -204q0 -229 -21 -362t-65 -201q-63 -97 -148.5 -138t-225.5 -41q-138 0 -224 41.5t-149 137.5q-44 68 -66 203q-10 65 -15.5 156t-5.5 204z M300 1535l160 263h188l160 -263h-114l-140 138l-140 -138h-114zM362 708q0 -350 40.5 -440t151.5 -90q107 0 147.5 88.5t40.5 441.5q0 355 -40.5 444.5t-149.5 89.5t-150 -90q-20 -45 -30 -154.5t-10 -289.5z" />
<glyph unicode="&#xd5;" horiz-adv-x="1105" d="M92 708q0 230 20.5 362t66.5 201q61 97 147 138.5t226 41.5q138 0 224 -41t150 -139q43 -67 65 -204q10 -64 15.5 -155t5.5 -204q0 -229 -21 -362t-65 -201q-63 -97 -148.5 -138t-225.5 -41q-138 0 -224 41.5t-149 137.5q-44 68 -66 203q-10 65 -15.5 156t-5.5 204z M295 1547q19 107 60.5 160t104.5 53q18 0 28 -2l28 -5l101 -31l21 -4l23 -1q28 0 45 17t25 52h81q-14 -101 -59.5 -159.5t-112.5 -58.5q-15 0 -24 2l-23 5l-111 32l-15 4l-15 2q-29 0 -48 -16.5t-28 -49.5h-81zM362 708q0 -350 40.5 -440t151.5 -90q107 0 147.5 88.5 t40.5 441.5q0 355 -40.5 444.5t-149.5 89.5t-150 -90q-20 -45 -30 -154.5t-10 -289.5z" />
<glyph unicode="&#xd9;" horiz-adv-x="1125" d="M121 439v978h264v-955q0 -163 40 -222t142 -59q100 0 139.5 59.5t39.5 225.5v951h260v-978q0 -141 -15.5 -207t-53.5 -117q-57 -74 -151 -112q-48 -19 -102.5 -28t-120.5 -9q-242 0 -342 105t-100 368zM297 1798h236l160 -263h-115z" />
<glyph unicode="&#xda;" horiz-adv-x="1125" d="M121 439v978h264v-955q0 -163 40 -222t142 -59q100 0 139.5 59.5t39.5 225.5v951h260v-978q0 -141 -15.5 -207t-53.5 -117q-57 -74 -151 -112q-48 -19 -102.5 -28t-120.5 -9q-242 0 -342 105t-100 368zM433 1535l160 263h236l-281 -263h-115z" />
<glyph unicode="&#xdd;" horiz-adv-x="1035" d="M17 1417h292l214 -533l212 533h284l-365 -816v-601h-266v601zM433 1535l160 263h236l-281 -263h-115z" />
<glyph unicode="&#xe0;" horiz-adv-x="913" d="M85 281q0 130 58.5 207.5t235.5 157.5l50 22q144 61 144 144q0 50 -28 77.5t-81 27.5q-67 0 -99 -36t-32 -112v-21h-239q0 179 88 261t282 82q193 0 271.5 -75.5t78.5 -262.5v-600q0 -44 8.5 -80.5t27.5 -72.5h-239q-7 10 -15 36l-12 67q-38 -63 -99.5 -97.5 t-143.5 -34.5q-121 0 -188.5 82.5t-67.5 227.5zM192 1440h236l160 -262h-115zM339 302q0 -71 26.5 -104.5t82.5 -33.5q64 0 96.5 56t32.5 168v170q-138 -69 -188 -125.5t-50 -130.5z" />
<glyph unicode="&#xe1;" horiz-adv-x="913" d="M85 281q0 130 58.5 207.5t235.5 157.5l50 22q144 61 144 144q0 50 -28 77.5t-81 27.5q-67 0 -99 -36t-32 -112v-21h-239q0 179 88 261t282 82q193 0 271.5 -75.5t78.5 -262.5v-600q0 -44 8.5 -80.5t27.5 -72.5h-239q-7 10 -15 36l-12 67q-38 -63 -99.5 -97.5 t-143.5 -34.5q-121 0 -188.5 82.5t-67.5 227.5zM328 1178l161 262h235l-281 -262h-115zM339 302q0 -71 26.5 -104.5t82.5 -33.5q64 0 96.5 56t32.5 168v170q-138 -69 -188 -125.5t-50 -130.5z" />
<glyph unicode="&#xe2;" horiz-adv-x="913" d="M85 281q0 130 58.5 207.5t235.5 157.5l50 22q144 61 144 144q0 50 -28 77.5t-81 27.5q-67 0 -99 -36t-32 -112v-21h-239q0 179 88 261t282 82q193 0 271.5 -75.5t78.5 -262.5v-600q0 -44 8.5 -80.5t27.5 -72.5h-239q-7 10 -15 36l-12 67q-38 -63 -99.5 -97.5 t-143.5 -34.5q-121 0 -188.5 82.5t-67.5 227.5zM204 1178l160 262h188l160 -262h-114l-140 138l-140 -138h-114zM339 302q0 -71 26.5 -104.5t82.5 -33.5q64 0 96.5 56t32.5 168v170q-138 -69 -188 -125.5t-50 -130.5z" />
<glyph unicode="&#xe3;" horiz-adv-x="913" d="M85 281q0 130 58.5 207.5t235.5 157.5l50 22q144 61 144 144q0 50 -28 77.5t-81 27.5q-67 0 -99 -36t-32 -112v-21h-239q0 179 88 261t282 82q193 0 271.5 -75.5t78.5 -262.5v-600q0 -44 8.5 -80.5t27.5 -72.5h-239q-7 10 -15 36l-12 67q-38 -63 -99.5 -97.5 t-143.5 -34.5q-121 0 -188.5 82.5t-67.5 227.5zM200 1189q18 107 60 160t104 53q19 0 28 -2l28 -5l102 -31l21 -4l23 -1q27 0 44 17t26 52h81q-15 -101 -60 -159.5t-112 -58.5q-16 0 -24 2l-23 5l-112 32l-14 4l-16 2q-28 0 -47.5 -16.5t-27.5 -49.5h-81zM339 302 q0 -71 26.5 -104.5t82.5 -33.5q64 0 96.5 56t32.5 168v170q-138 -69 -188 -125.5t-50 -130.5z" />
<glyph unicode="&#xe8;" horiz-adv-x="897" d="M77 567q0 196 18.5 278t63.5 137t119 82q38 14 81.5 21.5t94.5 7.5q98 0 170 -30t118 -91q39 -51 57 -134q8 -39 12.5 -104.5t4.5 -154.5v-81h-484l-3 -26v-42q0 -152 28 -213t96 -61q65 0 94.5 50t29.5 159h232l1 -21l1 -20q0 -183 -87 -268t-276 -85q-98 0 -165.5 25 t-111.5 78q-50 59 -73 155q-10 46 -15.5 130.5t-5.5 207.5zM182 1440h236l160 -262h-115zM328 696l1 -29h240v45q0 110 -27 151t-94 41q-64 0 -92 -42t-28 -150v-16z" />
<glyph unicode="&#xe9;" horiz-adv-x="897" d="M77 567q0 196 18.5 278t63.5 137t119 82q38 14 81.5 21.5t94.5 7.5q98 0 170 -30t118 -91q39 -51 57 -134q8 -39 12.5 -104.5t4.5 -154.5v-81h-484l-3 -26v-42q0 -152 28 -213t96 -61q65 0 94.5 50t29.5 159h232l1 -21l1 -20q0 -183 -87 -268t-276 -85q-98 0 -165.5 25 t-111.5 78q-50 59 -73 155q-10 46 -15.5 130.5t-5.5 207.5zM318 1178l160 262h236l-281 -262h-115zM328 696l1 -29h240v45q0 110 -27 151t-94 41q-64 0 -92 -42t-28 -150v-16z" />
<glyph unicode="&#xea;" horiz-adv-x="897" d="M77 567q0 196 18.5 278t63.5 137t119 82q38 14 81.5 21.5t94.5 7.5q98 0 170 -30t118 -91q39 -51 57 -134q8 -39 12.5 -104.5t4.5 -154.5v-81h-484l-3 -26v-42q0 -152 28 -213t96 -61q65 0 94.5 50t29.5 159h232l1 -21l1 -20q0 -183 -87 -268t-276 -85q-98 0 -165.5 25 t-111.5 78q-50 59 -73 155q-10 46 -15.5 130.5t-5.5 207.5zM194 1178l160 262h188l160 -262h-114l-140 138l-140 -138h-114zM328 696l1 -29h240v45q0 110 -27 151t-94 41q-64 0 -92 -42t-28 -150v-16z" />
<glyph unicode="&#xec;" horiz-adv-x="456" d="M-38 1440h236l160 -262h-115zM106 0v1064h245v-1064h-245z" />
<glyph unicode="&#xed;" horiz-adv-x="456" d="M98 1178l161 262h235l-281 -262h-115zM106 0v1064h245v-1064h-245z" />
<glyph unicode="&#xf2;" horiz-adv-x="900" d="M75 532q0 321 83.5 441t291.5 120q210 0 292.5 -119t82.5 -442q0 -321 -82.5 -441t-292.5 -120q-207 0 -291 119t-84 442zM184 1440h236l160 -262h-115zM328 518q0 -246 24.5 -302t95.5 -56q74 0 99 52q13 26 19.5 92.5t6.5 177.5v43v61q0 210 -27 262q-24 55 -96 55 q-69 0 -95.5 -50t-26.5 -237v-73v-25z" />
<glyph unicode="&#xf3;" horiz-adv-x="900" d="M75 532q0 321 83.5 441t291.5 120q210 0 292.5 -119t82.5 -442q0 -321 -82.5 -441t-292.5 -120q-207 0 -291 119t-84 442zM320 1178l160 262h236l-281 -262h-115zM328 518q0 -246 24.5 -302t95.5 -56q74 0 99 52q13 26 19.5 92.5t6.5 177.5v43v61q0 210 -27 262 q-24 55 -96 55q-69 0 -95.5 -50t-26.5 -237v-73v-25z" />
<glyph unicode="&#xf4;" horiz-adv-x="900" d="M75 532q0 321 83.5 441t291.5 120q210 0 292.5 -119t82.5 -442q0 -321 -82.5 -441t-292.5 -120q-207 0 -291 119t-84 442zM196 1178l160 262h188l160 -262h-114l-140 138l-140 -138h-114zM328 518q0 -246 24.5 -302t95.5 -56q74 0 99 52q13 26 19.5 92.5t6.5 177.5v43v61 q0 210 -27 262q-24 55 -96 55q-69 0 -95.5 -50t-26.5 -237v-73v-25z" />
<glyph unicode="&#xf5;" horiz-adv-x="900" d="M75 532q0 321 83.5 441t291.5 120q210 0 292.5 -119t82.5 -442q0 -321 -82.5 -441t-292.5 -120q-207 0 -291 119t-84 442zM191 1189q19 107 60.5 160t104.5 53q18 0 28 -2l28 -5l101 -31l22 -4l23 -1q27 0 44 17t25 52h81q-14 -101 -59 -159.5t-113 -58.5q-15 0 -24 2 l-23 5l-111 32l-15 4l-15 2q-29 0 -48 -16.5t-28 -49.5h-81zM328 518q0 -246 24.5 -302t95.5 -56q74 0 99 52q13 26 19.5 92.5t6.5 177.5v43v61q0 210 -27 262q-24 55 -96 55q-69 0 -95.5 -50t-26.5 -237v-73v-25z" />
<glyph unicode="&#xf9;" horiz-adv-x="911" d="M104 228v836h237v-695q0 -107 24 -146.5t81 -39.5q61 0 87 45t26 157v679h248v-1064h-242v106q-37 -66 -95 -100q-27 -16 -60 -25.5t-69 -9.5q-117 0 -177 66t-60 191zM190 1440h236l160 -262h-115z" />
<glyph unicode="&#xfa;" horiz-adv-x="911" d="M104 228v836h237v-695q0 -107 24 -146.5t81 -39.5q61 0 87 45t26 157v679h248v-1064h-242v106q-37 -66 -95 -100q-27 -16 -60 -25.5t-69 -9.5q-117 0 -177 66t-60 191zM327 1178l160 262h235l-280 -262h-115z" />
<glyph unicode="&#xfd;" horiz-adv-x="836" d="M18 1064h261l147 -768l143 768h249l-277 -1164q-36 -152 -97.5 -204t-195.5 -52h-14q-9 0 -15.5 0.5t-12.5 1.5l-44 5v184h16l23 -1q53 0 77 17t24 55l-3 29l-3 16.5t-4 15.5zM327 1178l160 262h235l-280 -262h-115z" />
<glyph unicode="&#x102;" horiz-adv-x="1030" d="M17 0l319 1417h354l322 -1417h-284l-70 356h-304l-68 -356h-269zM262 1754h105q9 -58 44.5 -85.5t102.5 -27.5t103 27.5t44 85.5h105q-13 -136 -73.5 -199t-178.5 -63q-115 0 -176.5 63t-75.5 199zM396 569h224l-113 594z" />
<glyph unicode="&#x103;" horiz-adv-x="913" d="M85 281q0 130 58.5 207.5t235.5 157.5l50 22q144 61 144 144q0 50 -28 77.5t-81 27.5q-67 0 -99 -36t-32 -112v-21h-239q0 179 88 261t282 82q193 0 271.5 -75.5t78.5 -262.5v-600q0 -44 8.5 -80.5t27.5 -72.5h-239q-7 10 -15 36l-12 67q-38 -63 -99.5 -97.5 t-143.5 -34.5q-121 0 -188.5 82.5t-67.5 227.5zM206 1440h105q9 -58 44.5 -85.5t102.5 -27.5q66 0 102.5 27t44.5 86h105q-13 -136 -73.5 -199t-178.5 -63q-115 0 -176.5 63t-75.5 199zM339 302q0 -71 26.5 -104.5t82.5 -33.5q64 0 96.5 56t32.5 168v170 q-138 -69 -188 -125.5t-50 -130.5z" />
<glyph unicode="&#x110;" horiz-adv-x="1107" d="M-8 644v264h129v509h424q128 0 205.5 -22t127.5 -72q74 -72 105 -184q14 -54 22.5 -141.5t8.5 -202.5q0 -306 -21 -428t-70.5 -209.5t-138 -122.5t-300.5 -35h-363v644h-129zM379 209h117q90 0 125 12.5t57 44.5q36 55 52 152.5t16 306.5t-18.5 302t-62.5 140 q-22 23 -59.5 33t-113.5 10h-113v-302h153v-264h-153v-435z" />
<glyph unicode="&#x111;" horiz-adv-x="915" d="M77 527q0 324 61.5 445t213.5 121q76 0 126 -28.5t83 -90.5v198h-210v132h210v113h248v-113h146v-132h-146v-1172h-234v111q-30 -70 -84.5 -105t-132.5 -35q-155 0 -218 122.5t-63 433.5zM328 548q0 -125 5.5 -201t17.5 -109q24 -63 90 -63q72 0 100 55.5t28 233.5 q0 280 -27.5 351t-100.5 71q-64 0 -88.5 -61t-24.5 -277z" />
<glyph unicode="&#x128;" horiz-adv-x="505" d="M22 1547q18 107 60 160t105 53q18 0 27 -2l29 -5l101 -31l21 -4l23 -1q28 0 45 17t25 52h81q-15 -101 -60 -159.5t-112 -58.5q-16 0 -24 2l-23 5l-111 32l-15 4l-16 2q-28 0 -47.5 -16.5t-27.5 -49.5h-81zM121 0v1417h264v-1417h-264z" />
<glyph unicode="&#x129;" horiz-adv-x="456" d="M-11 1189q18 107 60 160t105 53q18 0 27 -2l29 -5l101 -31l21 -4l23 -1q28 0 45 17t25 52h81q-15 -101 -60 -159.5t-112 -58.5q-16 0 -24 2l-23 5l-111 32l-15 4l-16 2q-28 0 -47.5 -16.5t-27.5 -49.5h-81zM106 0v1064h245v-1064h-245z" />
<glyph unicode="&#x168;" horiz-adv-x="1125" d="M121 439v978h264v-955q0 -163 40 -222t142 -59q100 0 139.5 59.5t39.5 225.5v951h260v-978q0 -141 -15.5 -207t-53.5 -117q-57 -74 -151 -112q-48 -19 -102.5 -28t-120.5 -9q-242 0 -342 105t-100 368zM305 1547q19 107 61 160t104 53q19 0 28 -2l28 -5l101 -31l22 -4 l23 -1q27 0 44 17t26 52h80q-14 -101 -59 -159.5t-113 -58.5q-15 0 -23 2l-23 5l-112 32l-15 4l-15 2q-29 0 -48 -16.5t-28 -49.5h-81z" />
<glyph unicode="&#x169;" horiz-adv-x="911" d="M104 228v836h237v-695q0 -107 24 -146.5t81 -39.5q61 0 87 45t26 157v679h248v-1064h-242v106q-37 -66 -95 -100q-27 -16 -60 -25.5t-69 -9.5q-117 0 -177 66t-60 191zM191 1189q19 107 60.5 160t104.5 53q18 0 28 -2l28 -5l101 -31l22 -4l23 -1q27 0 44 17t25 52h81 q-14 -101 -59 -159.5t-113 -58.5q-15 0 -24 2l-23 5l-111 32l-15 4l-15 2q-29 0 -48 -16.5t-28 -49.5h-81z" />
<glyph unicode="&#x1a0;" horiz-adv-x="1105" d="M92 708q0 230 20.5 362t66.5 201q61 97 147 138.5t226 41.5q138 0 224 -41t150 -139q43 -67 65 -204q10 -64 15.5 -155t5.5 -204q0 -229 -21 -362t-65 -201q-63 -97 -148.5 -138t-225.5 -41q-138 0 -224 41.5t-149 137.5q-44 68 -66 203q-10 65 -15.5 156t-5.5 204z M362 708q0 -350 40.5 -440t151.5 -90q107 0 147.5 88.5t40.5 441.5q0 355 -40.5 444.5t-149.5 89.5t-150 -90q-20 -45 -30 -154.5t-10 -289.5zM813 1244v73q45 5 72 40t27 89v11h-99v196h183v-197q0 -90 -48.5 -147t-134.5 -65z" />
<glyph unicode="&#x1a1;" horiz-adv-x="900" d="M75 532q0 321 83.5 441t291.5 120q198 0 283 -106q15 9 26 24q27 35 27 89v11h-99v196h183v-197q0 -90 -48 -147q-23 -26 -51 -41q54 -128 54 -390q0 -321 -82.5 -441t-292.5 -120q-207 0 -291 119t-84 442zM328 518q0 -246 24.5 -302t95.5 -56q74 0 99 52 q13 26 19.5 92.5t6.5 177.5v43v61q0 210 -27 262q-24 55 -96 55q-69 0 -95.5 -50t-26.5 -237v-73v-25z" />
<glyph unicode="&#x1af;" horiz-adv-x="1125" d="M121 439v978h264v-955q0 -163 40 -222t142 -59q100 0 139.5 59.5t39.5 225.5v951h260v-75q8 7 14 15q27 35 27 89v11h-98v196h183v-197q0 -90 -49 -147q-31 -36 -77 -52v-818q0 -141 -15.5 -207t-53.5 -117q-57 -74 -151 -112q-48 -19 -102.5 -28t-120.5 -9 q-242 0 -342 105t-100 368z" />
<glyph unicode="&#x1b0;" horiz-adv-x="911" d="M104 228v836h237v-695q0 -107 24 -146.5t81 -39.5q61 0 87 45t26 157v679h248v-65q5 6 11 12q27 35 27 89v11h-99v196h183v-197q0 -90 -49 -147q-29 -35 -73 -51v-912h-242v106q-37 -66 -95 -100q-27 -16 -60 -25.5t-69 -9.5q-117 0 -177 66t-60 191z" />
<glyph unicode="&#x1ea0;" horiz-adv-x="1030" d="M17 0l319 1417h354l322 -1417h-284l-70 356h-304l-68 -356h-269zM396 569h224l-113 594zM413 -141h202v-218h-202v218z" />
<glyph unicode="&#x1ea1;" horiz-adv-x="913" d="M85 281q0 130 58.5 207.5t235.5 157.5l50 22q144 61 144 144q0 50 -28 77.5t-81 27.5q-67 0 -99 -36t-32 -112v-21h-239q0 179 88 261t282 82q193 0 271.5 -75.5t78.5 -262.5v-600q0 -44 8.5 -80.5t27.5 -72.5h-239q-7 10 -15 36l-12 67q-38 -63 -99.5 -97.5 t-143.5 -34.5q-121 0 -188.5 82.5t-67.5 227.5zM339 302q0 -71 26.5 -104.5t82.5 -33.5q64 0 96.5 56t32.5 168v170q-138 -69 -188 -125.5t-50 -130.5zM426 -141h202v-218h-202v218z" />
<glyph unicode="&#x1ea2;" horiz-adv-x="1030" d="M17 0l319 1417h354l322 -1417h-284l-70 356h-304l-68 -356h-269zM374 1754v18q0 71 38.5 111.5t111.5 40.5q71 0 111 -39.5t40 -105.5q0 -25 -5.5 -46t-16.5 -39q-13 -23 -40.5 -54.5t-35.5 -43.5q-13 -16 -19 -36.5t-6 -45.5v-6l1 -10h-104l-2 14v15q0 20 2.5 36t6.5 30 q10 29 34 60l19 23q48 55 48 108q0 28 -10.5 41.5t-25.5 13.5q-18 0 -29 -15.5t-11 -52.5v-17h-107zM396 569h224l-113 594z" />
<glyph unicode="&#x1ea3;" horiz-adv-x="913" d="M85 281q0 130 58.5 207.5t235.5 157.5l50 22q144 61 144 144q0 50 -28 77.5t-81 27.5q-67 0 -99 -36t-32 -112v-21h-239q0 179 88 261t282 82q193 0 271.5 -75.5t78.5 -262.5v-600q0 -44 8.5 -80.5t27.5 -72.5h-239q-7 10 -15 36l-12 67q-38 -63 -99.5 -97.5 t-143.5 -34.5q-121 0 -188.5 82.5t-67.5 227.5zM313 1409v17q0 71 38 111.5t112 40.5q71 0 111 -39.5t40 -105.5q0 -24 -5.5 -45.5t-16.5 -39.5q-13 -23 -41 -54.5t-36 -43.5q-13 -16 -19 -36.5t-6 -45.5v-6l1 -10h-105l-1 14v15q0 20 2 36t8 31q9 28 34 59l18 23 q48 56 48 108q0 28 -10 41.5t-26 13.5q-17 0 -28 -15.5t-11 -52.5v-16h-107zM339 302q0 -71 26.5 -104.5t82.5 -33.5q64 0 96.5 56t32.5 168v170q-138 -69 -188 -125.5t-50 -130.5z" />
<glyph unicode="&#x1ea4;" horiz-adv-x="1030" d="M17 0l319 1417h354l322 -1417h-284l-70 356h-304l-68 -356h-269zM262 1535l160 263h188l160 -263h-114l-140 138l-140 -138h-114zM396 569h224l-113 594zM681 1730l160 262h235l-280 -262h-115z" />
<glyph unicode="&#x1ea5;" horiz-adv-x="913" d="M85 281q0 130 58.5 207.5t235.5 157.5l50 22q144 61 144 144q0 50 -28 77.5t-81 27.5q-67 0 -99 -36t-32 -112v-21h-239q0 179 88 261t282 82q193 0 271.5 -75.5t78.5 -262.5v-600q0 -44 8.5 -80.5t27.5 -72.5h-239q-7 10 -15 36l-12 67q-38 -63 -99.5 -97.5 t-143.5 -34.5q-121 0 -188.5 82.5t-67.5 227.5zM204 1178l160 262h188l160 -262h-114l-140 138l-140 -138h-114zM339 302q0 -71 26.5 -104.5t82.5 -33.5q64 0 96.5 56t32.5 168v170q-138 -69 -188 -125.5t-50 -130.5zM615 1372l160 262h235l-280 -262h-115z" />
<glyph unicode="&#x1ea6;" horiz-adv-x="1030" d="M17 0l319 1417h354l322 -1417h-284l-70 356h-304l-68 -356h-269zM262 1535l160 263h188l160 -263h-114l-140 138l-140 -138h-114zM396 569h224l-113 594zM453 1992h235l160 -262h-115z" />
<glyph unicode="&#x1ea7;" horiz-adv-x="913" d="M85 281q0 130 58.5 207.5t235.5 157.5l50 22q144 61 144 144q0 50 -28 77.5t-81 27.5q-67 0 -99 -36t-32 -112v-21h-239q0 179 88 261t282 82q193 0 271.5 -75.5t78.5 -262.5v-600q0 -44 8.5 -80.5t27.5 -72.5h-239q-7 10 -15 36l-12 67q-38 -63 -99.5 -97.5 t-143.5 -34.5q-121 0 -188.5 82.5t-67.5 227.5zM204 1178l160 262h188l160 -262h-114l-140 138l-140 -138h-114zM339 302q0 -71 26.5 -104.5t82.5 -33.5q64 0 96.5 56t32.5 168v170q-138 -69 -188 -125.5t-50 -130.5zM386 1634h236l160 -262h-115z" />
<glyph unicode="&#x1ea8;" horiz-adv-x="1030" d="M17 0l319 1417h354l322 -1417h-284l-70 356h-304l-68 -356h-269zM262 1535l160 263h188l160 -263h-114l-140 138l-140 -138h-114zM396 569h224l-113 594zM629 1967v17q0 71 38.5 111.5t111.5 40.5q71 0 111 -39.5t40 -104.5q0 -25 -5.5 -46t-16.5 -40q-13 -23 -40.5 -54 t-35.5 -43q-13 -17 -19 -37t-6 -45v-7l1 -10h-104l-2 14v16q0 19 2.5 35t6.5 31q9 28 34 60l19 23q47 55 47 107q0 29 -10 42.5t-25 13.5q-18 0 -29 -16t-11 -52v-17h-107z" />
<glyph unicode="&#x1ea9;" horiz-adv-x="913" d="M85 281q0 130 58.5 207.5t235.5 157.5l50 22q144 61 144 144q0 50 -28 77.5t-81 27.5q-67 0 -99 -36t-32 -112v-21h-239q0 179 88 261t282 82q193 0 271.5 -75.5t78.5 -262.5v-600q0 -44 8.5 -80.5t27.5 -72.5h-239q-7 10 -15 36l-12 67q-38 -63 -99.5 -97.5 t-143.5 -34.5q-121 0 -188.5 82.5t-67.5 227.5zM204 1178l160 262h188l160 -262h-114l-140 138l-140 -138h-114zM339 302q0 -71 26.5 -104.5t82.5 -33.5q64 0 96.5 56t32.5 168v170q-138 -69 -188 -125.5t-50 -130.5zM558 1612v17q0 71 38 111.5t111 40.5q71 0 111 -39.5 t40 -104.5q0 -25 -5.5 -46t-16.5 -40q-13 -23 -40.5 -54t-35.5 -43q-13 -17 -19 -37t-6 -45v-7l1 -10h-105l-1 14v16q0 19 2 35t7 31q10 28 34 60l19 23q48 55 48 107q0 29 -10.5 42t-25.5 13q-18 0 -29 -15.5t-11 -52.5v-16h-106z" />
<glyph unicode="&#x1eaa;" horiz-adv-x="1030" d="M17 0l319 1417h354l322 -1417h-284l-70 356h-304l-68 -356h-269zM262 1535l160 263h188l160 -263h-114l-140 138l-140 -138h-114zM291 1808q18 107 60 160t104 53q19 0 28 -2l29 -5l101 -30l21 -5l23 -1q27 0 44.5 17t25.5 52h81q-15 -101 -60 -159.5t-112 -58.5 q-16 0 -24 2l-23 5l-112 33l-14 3l-16 2q-28 0 -47.5 -16.5t-27.5 -49.5h-81zM396 569h224l-113 594z" />
<glyph unicode="&#x1eab;" horiz-adv-x="913" d="M85 281q0 130 58.5 207.5t235.5 157.5l50 22q144 61 144 144q0 50 -28 77.5t-81 27.5q-67 0 -99 -36t-32 -112v-21h-239q0 179 88 261t282 82q193 0 271.5 -75.5t78.5 -262.5v-600q0 -44 8.5 -80.5t27.5 -72.5h-239q-7 10 -15 36l-12 67q-38 -63 -99.5 -97.5 t-143.5 -34.5q-121 0 -188.5 82.5t-67.5 227.5zM204 1178l160 262h188l160 -262h-114l-140 138l-140 -138h-114zM234 1459q18 108 60 161t104 53q19 0 28 -2l28 -6l102 -30l21 -5l23 -1q27 0 44 17t26 52h81q-15 -101 -60 -159.5t-112 -58.5q-16 0 -24 2l-23 6l-112 32 l-14 4l-16 1q-28 0 -47.5 -16.5t-27.5 -49.5h-81zM339 302q0 -71 26.5 -104.5t82.5 -33.5q64 0 96.5 56t32.5 168v170q-138 -69 -188 -125.5t-50 -130.5z" />
<glyph unicode="&#x1eac;" horiz-adv-x="1030" d="M17 0l319 1417h354l322 -1417h-284l-70 356h-304l-68 -356h-269zM262 1535l160 263h188l160 -263h-114l-140 138l-140 -138h-114zM396 569h224l-113 594zM413 -141h202v-218h-202v218z" />
<glyph unicode="&#x1ead;" horiz-adv-x="913" d="M85 281q0 130 58.5 207.5t235.5 157.5l50 22q144 61 144 144q0 50 -28 77.5t-81 27.5q-67 0 -99 -36t-32 -112v-21h-239q0 179 88 261t282 82q193 0 271.5 -75.5t78.5 -262.5v-600q0 -44 8.5 -80.5t27.5 -72.5h-239q-7 10 -15 36l-12 67q-38 -63 -99.5 -97.5 t-143.5 -34.5q-121 0 -188.5 82.5t-67.5 227.5zM204 1178l160 262h188l160 -262h-114l-140 138l-140 -138h-114zM339 302q0 -71 26.5 -104.5t82.5 -33.5q64 0 96.5 56t32.5 168v170q-138 -69 -188 -125.5t-50 -130.5zM426 -141h202v-218h-202v218z" />
<glyph unicode="&#x1eae;" horiz-adv-x="1030" d="M17 0l319 1417h354l322 -1417h-284l-70 356h-304l-68 -356h-269zM262 1754h105q9 -58 44.5 -85.5t102.5 -27.5t103 27.5t44 85.5h105q-13 -136 -73.5 -199t-178.5 -63q-115 0 -176.5 63t-75.5 199zM396 569h224l-113 594zM443 1730l160 262h235l-280 -262h-115z" />
<glyph unicode="&#x1eaf;" horiz-adv-x="913" d="M85 281q0 130 58.5 207.5t235.5 157.5l50 22q144 61 144 144q0 50 -28 77.5t-81 27.5q-67 0 -99 -36t-32 -112v-21h-239q0 179 88 261t282 82q193 0 271.5 -75.5t78.5 -262.5v-600q0 -44 8.5 -80.5t27.5 -72.5h-239q-7 10 -15 36l-12 67q-38 -63 -99.5 -97.5 t-143.5 -34.5q-121 0 -188.5 82.5t-67.5 227.5zM206 1440h105q9 -58 44.5 -85.5t102.5 -27.5q66 0 102.5 27t44.5 86h105q-13 -136 -73.5 -199t-178.5 -63q-115 0 -176.5 63t-75.5 199zM339 302q0 -71 26.5 -104.5t82.5 -33.5q64 0 96.5 56t32.5 168v170 q-138 -69 -188 -125.5t-50 -130.5zM369 1414l160 262h236l-281 -262h-115z" />
<glyph unicode="&#x1eb0;" horiz-adv-x="1030" d="M17 0l319 1417h354l322 -1417h-284l-70 356h-304l-68 -356h-269zM200 1992h235l160 -262h-115zM262 1754h105q9 -58 44.5 -85.5t102.5 -27.5t103 27.5t44 85.5h105q-13 -136 -73.5 -199t-178.5 -63q-115 0 -176.5 63t-75.5 199zM396 569h224l-113 594z" />
<glyph unicode="&#x1eb1;" horiz-adv-x="913" d="M85 281q0 130 58.5 207.5t235.5 157.5l50 22q144 61 144 144q0 50 -28 77.5t-81 27.5q-67 0 -99 -36t-32 -112v-21h-239q0 179 88 261t282 82q193 0 271.5 -75.5t78.5 -262.5v-600q0 -44 8.5 -80.5t27.5 -72.5h-239q-7 10 -15 36l-12 67q-38 -63 -99.5 -97.5 t-143.5 -34.5q-121 0 -188.5 82.5t-67.5 227.5zM158 1668h236l160 -262h-115zM206 1440h105q9 -58 44.5 -85.5t102.5 -27.5q66 0 102.5 27t44.5 86h105q-13 -136 -73.5 -199t-178.5 -63q-115 0 -176.5 63t-75.5 199zM339 302q0 -71 26.5 -104.5t82.5 -33.5q64 0 96.5 56 t32.5 168v170q-138 -69 -188 -125.5t-50 -130.5z" />
<glyph unicode="&#x1eb2;" horiz-adv-x="1030" d="M17 0l319 1417h354l322 -1417h-284l-70 356h-304l-68 -356h-269zM262 1754h105q9 -58 44.5 -85.5t102.5 -27.5t103 27.5t44 85.5h105q-13 -136 -73.5 -199t-178.5 -63q-115 0 -176.5 63t-75.5 199zM396 569h224l-113 594zM402 1984v18q0 71 38 111.5t112 40.5 q71 0 111 -39.5t40 -105.5q0 -25 -5.5 -46t-16.5 -39q-13 -23 -40.5 -54.5t-36.5 -43.5q-12 -16 -18 -36.5t-6 -45.5v-6l1 -10h-104l-2 14v15q0 20 2 36t7 30q9 29 34 60l18 23q48 55 48 108q0 28 -10 41.5t-26 13.5q-17 0 -28 -15.5t-11 -52.5v-17h-107z" />
<glyph unicode="&#x1eb3;" horiz-adv-x="913" d="M85 281q0 130 58.5 207.5t235.5 157.5l50 22q144 61 144 144q0 50 -28 77.5t-81 27.5q-67 0 -99 -36t-32 -112v-21h-239q0 179 88 261t282 82q193 0 271.5 -75.5t78.5 -262.5v-600q0 -44 8.5 -80.5t27.5 -72.5h-239q-7 10 -15 36l-12 67q-38 -63 -99.5 -97.5 t-143.5 -34.5q-121 0 -188.5 82.5t-67.5 227.5zM206 1440h105q9 -58 44.5 -85.5t102.5 -27.5q66 0 102.5 27t44.5 86h105q-13 -136 -73.5 -199t-178.5 -63q-115 0 -176.5 63t-75.5 199zM339 302q0 -71 26.5 -104.5t82.5 -33.5q64 0 96.5 56t32.5 168v170 q-138 -69 -188 -125.5t-50 -130.5zM339 1654v18q0 70 38 110.5t112 40.5q70 0 110 -39.5t40 -104.5q0 -25 -5.5 -46t-16.5 -40q-13 -23 -40.5 -54t-35.5 -43q-13 -17 -19 -37t-6 -45v-6l1 -11h-105l-1 14v16q0 19 2 35t7 31q10 29 34 60l19 23q48 55 48 108q0 28 -10.5 41.5 t-25.5 13.5q-18 0 -29 -15.5t-11 -52.5v-17h-106z" />
<glyph unicode="&#x1eb4;" horiz-adv-x="1030" d="M17 0l319 1417h354l322 -1417h-284l-70 356h-304l-68 -356h-269zM262 1754h105q9 -58 44.5 -85.5t102.5 -27.5t103 27.5t44 85.5h105q-13 -136 -73.5 -199t-178.5 -63q-115 0 -176.5 63t-75.5 199zM291 1808q18 107 60 160t104 53q19 0 28 -2l29 -5l101 -30l21 -5l23 -1 q27 0 44.5 17t25.5 52h81q-15 -101 -60 -159.5t-112 -58.5q-16 0 -24 2l-23 5l-112 33l-14 3l-16 2q-28 0 -47.5 -16.5t-27.5 -49.5h-81zM396 569h224l-113 594z" />
<glyph unicode="&#x1eb5;" horiz-adv-x="913" d="M85 281q0 130 58.5 207.5t235.5 157.5l50 22q144 61 144 144q0 50 -28 77.5t-81 27.5q-67 0 -99 -36t-32 -112v-21h-239q0 179 88 261t282 82q193 0 271.5 -75.5t78.5 -262.5v-600q0 -44 8.5 -80.5t27.5 -72.5h-239q-7 10 -15 36l-12 67q-38 -63 -99.5 -97.5 t-143.5 -34.5q-121 0 -188.5 82.5t-67.5 227.5zM206 1440h105q9 -58 44.5 -85.5t102.5 -27.5q66 0 102.5 27t44.5 86h105q-13 -136 -73.5 -199t-178.5 -63q-115 0 -176.5 63t-75.5 199zM250 1459q19 108 60.5 161t104.5 53q18 0 28 -2l28 -6l101 -30l21 -5l23 -1q28 0 45 17 t25 52h81q-14 -101 -59.5 -159.5t-112.5 -58.5q-15 0 -24 2l-23 6l-111 32l-15 4l-15 1q-29 0 -48.5 -16.5t-27.5 -49.5h-81zM339 302q0 -71 26.5 -104.5t82.5 -33.5q64 0 96.5 56t32.5 168v170q-138 -69 -188 -125.5t-50 -130.5z" />
<glyph unicode="&#x1eb6;" horiz-adv-x="1030" d="M17 0l319 1417h354l322 -1417h-284l-70 356h-304l-68 -356h-269zM262 1754h105q9 -58 44.5 -85.5t102.5 -27.5t103 27.5t44 85.5h105q-13 -136 -73.5 -199t-178.5 -63q-115 0 -176.5 63t-75.5 199zM396 569h224l-113 594zM413 -141h202v-218h-202v218z" />
<glyph unicode="&#x1eb7;" horiz-adv-x="913" d="M85 281q0 130 58.5 207.5t235.5 157.5l50 22q144 61 144 144q0 50 -28 77.5t-81 27.5q-67 0 -99 -36t-32 -112v-21h-239q0 179 88 261t282 82q193 0 271.5 -75.5t78.5 -262.5v-600q0 -44 8.5 -80.5t27.5 -72.5h-239q-7 10 -15 36l-12 67q-38 -63 -99.5 -97.5 t-143.5 -34.5q-121 0 -188.5 82.5t-67.5 227.5zM206 1440h105q9 -58 44.5 -85.5t102.5 -27.5q66 0 102.5 27t44.5 86h105q-13 -136 -73.5 -199t-178.5 -63q-115 0 -176.5 63t-75.5 199zM339 302q0 -71 26.5 -104.5t82.5 -33.5q64 0 96.5 56t32.5 168v170 q-138 -69 -188 -125.5t-50 -130.5zM426 -141h202v-218h-202v218z" />
<glyph unicode="&#x1eb8;" horiz-adv-x="932" d="M121 0v1417h727v-236h-465v-327h433v-225h-433v-390h476v-239h-738zM413 -141h202v-218h-202v218z" />
<glyph unicode="&#x1eb9;" horiz-adv-x="897" d="M77 567q0 196 18.5 278t63.5 137t119 82q38 14 81.5 21.5t94.5 7.5q98 0 170 -30t118 -91q39 -51 57 -134q8 -39 12.5 -104.5t4.5 -154.5v-81h-484l-3 -26v-42q0 -152 28 -213t96 -61q65 0 94.5 50t29.5 159h232l1 -21l1 -20q0 -183 -87 -268t-276 -85q-98 0 -165.5 25 t-111.5 78q-50 59 -73 155q-10 46 -15.5 130.5t-5.5 207.5zM328 696l1 -29h240v45q0 110 -27 151t-94 41q-64 0 -92 -42t-28 -150v-16zM346 -141h202v-218h-202v218z" />
<glyph unicode="&#x1eba;" horiz-adv-x="932" d="M121 0v1417h727v-236h-465v-327h433v-225h-433v-390h476v-239h-738zM374 1754v18q0 71 38.5 111.5t111.5 40.5q71 0 111 -39.5t40 -105.5q0 -25 -5.5 -46t-16.5 -39q-13 -23 -40.5 -54.5t-35.5 -43.5q-13 -16 -19 -36.5t-6 -45.5v-6l1 -10h-104l-2 14v15q0 20 2.5 36 t6.5 30q10 29 34 60l19 23q48 55 48 108q0 28 -10.5 41.5t-25.5 13.5q-18 0 -29 -15.5t-11 -52.5v-17h-107z" />
<glyph unicode="&#x1ebb;" horiz-adv-x="897" d="M77 567q0 196 18.5 278t63.5 137t119 82q38 14 81.5 21.5t94.5 7.5q98 0 170 -30t118 -91q39 -51 57 -134q8 -39 12.5 -104.5t4.5 -154.5v-81h-484l-3 -26v-42q0 -152 28 -213t96 -61q65 0 94.5 50t29.5 159h232l1 -21l1 -20q0 -183 -87 -268t-276 -85q-98 0 -165.5 25 t-111.5 78q-50 59 -73 155q-10 46 -15.5 130.5t-5.5 207.5zM313 1409v17q0 71 38 111.5t112 40.5q71 0 111 -39.5t40 -105.5q0 -24 -5.5 -45.5t-16.5 -39.5q-13 -23 -41 -54.5t-36 -43.5q-13 -16 -19 -36.5t-6 -45.5v-6l1 -10h-105l-1 14v15q0 20 2 36t8 31q9 28 34 59 l18 23q48 56 48 108q0 28 -10 41.5t-26 13.5q-17 0 -28 -15.5t-11 -52.5v-16h-107zM328 696l1 -29h240v45q0 110 -27 151t-94 41q-64 0 -92 -42t-28 -150v-16z" />
<glyph unicode="&#x1ebc;" horiz-adv-x="932" d="M121 0v1417h727v-236h-465v-327h433v-225h-433v-390h476v-239h-738zM258 1547q18 107 60 160t104 53q19 0 28 -2l28 -5l102 -31l21 -4l23 -1q27 0 44 17t26 52h81q-15 -101 -60 -159.5t-112 -58.5q-16 0 -24 2l-23 5l-112 32l-14 4l-16 2q-29 0 -48 -16.5t-27 -49.5h-81z " />
<glyph unicode="&#x1ebd;" horiz-adv-x="897" d="M77 567q0 196 18.5 278t63.5 137t119 82q38 14 81.5 21.5t94.5 7.5q98 0 170 -30t118 -91q39 -51 57 -134q8 -39 12.5 -104.5t4.5 -154.5v-81h-484l-3 -26v-42q0 -152 28 -213t96 -61q65 0 94.5 50t29.5 159h232l1 -21l1 -20q0 -183 -87 -268t-276 -85q-98 0 -165.5 25 t-111.5 78q-50 59 -73 155q-10 46 -15.5 130.5t-5.5 207.5zM200 1189q18 107 60 160t104 53q19 0 28 -2l28 -5l102 -31l21 -4l23 -1q27 0 44 17t26 52h81q-15 -101 -60 -159.5t-112 -58.5q-16 0 -24 2l-23 5l-112 32l-14 4l-16 2q-28 0 -47.5 -16.5t-27.5 -49.5h-81z M328 696l1 -29h240v45q0 110 -27 151t-94 41q-64 0 -92 -42t-28 -150v-16z" />
<glyph unicode="&#x1ebe;" horiz-adv-x="932" d="M121 0v1417h727v-236h-465v-327h433v-225h-433v-390h476v-239h-738zM223 1535l160 263h187l160 -263h-114l-139 138l-140 -138h-114zM655 1730l160 262h236l-281 -262h-115z" />
<glyph unicode="&#x1ebf;" horiz-adv-x="897" d="M77 567q0 196 18.5 278t63.5 137t119 82q38 14 81.5 21.5t94.5 7.5q98 0 170 -30t118 -91q39 -51 57 -134q8 -39 12.5 -104.5t4.5 -154.5v-81h-484l-3 -26v-42q0 -152 28 -213t96 -61q65 0 94.5 50t29.5 159h232l1 -21l1 -20q0 -183 -87 -268t-276 -85q-98 0 -165.5 25 t-111.5 78q-50 59 -73 155q-10 46 -15.5 130.5t-5.5 207.5zM194 1178l160 262h188l160 -262h-114l-140 138l-140 -138h-114zM328 696l1 -29h240v45q0 110 -27 151t-94 41q-64 0 -92 -42t-28 -150v-16zM605 1372l160 262h236l-281 -262h-115z" />
<glyph unicode="&#x1ec0;" horiz-adv-x="932" d="M121 0v1417h727v-236h-465v-327h433v-225h-433v-390h476v-239h-738zM223 1535l160 263h187l160 -263h-114l-139 138l-140 -138h-114zM419 1992h235l160 -262h-115z" />
<glyph unicode="&#x1ec1;" horiz-adv-x="897" d="M77 567q0 196 18.5 278t63.5 137t119 82q38 14 81.5 21.5t94.5 7.5q98 0 170 -30t118 -91q39 -51 57 -134q8 -39 12.5 -104.5t4.5 -154.5v-81h-484l-3 -26v-42q0 -152 28 -213t96 -61q65 0 94.5 50t29.5 159h232l1 -21l1 -20q0 -183 -87 -268t-276 -85q-98 0 -165.5 25 t-111.5 78q-50 59 -73 155q-10 46 -15.5 130.5t-5.5 207.5zM194 1178l160 262h188l160 -262h-114l-140 138l-140 -138h-114zM328 696l1 -29h240v45q0 110 -27 151t-94 41q-64 0 -92 -42t-28 -150v-16zM377 1634h236l160 -262h-115z" />
<glyph unicode="&#x1ec2;" horiz-adv-x="932" d="M121 0v1417h727v-236h-465v-327h433v-225h-433v-390h476v-239h-738zM223 1535l160 263h187l160 -263h-114l-139 138l-140 -138h-114zM595 1967v17q0 71 38.5 111.5t111.5 40.5q71 0 111 -39.5t40 -104.5q0 -25 -5.5 -46t-16.5 -40q-13 -23 -40.5 -54t-35.5 -43 q-13 -17 -19 -37t-6 -45v-7l1 -10h-104l-2 14v16q0 19 2.5 35t6.5 31q9 28 34 60l19 23q47 55 47 107q0 29 -10 42.5t-25 13.5q-18 0 -29 -16t-11 -52v-17h-107z" />
<glyph unicode="&#x1ec3;" horiz-adv-x="897" d="M77 567q0 196 18.5 278t63.5 137t119 82q38 14 81.5 21.5t94.5 7.5q98 0 170 -30t118 -91q39 -51 57 -134q8 -39 12.5 -104.5t4.5 -154.5v-81h-484l-3 -26v-42q0 -152 28 -213t96 -61q65 0 94.5 50t29.5 159h232l1 -21l1 -20q0 -183 -87 -268t-276 -85q-98 0 -165.5 25 t-111.5 78q-50 59 -73 155q-10 46 -15.5 130.5t-5.5 207.5zM194 1178l160 262h188l160 -262h-114l-140 138l-140 -138h-114zM328 696l1 -29h240v45q0 110 -27 151t-94 41q-64 0 -92 -42t-28 -150v-16zM549 1612v17q0 71 38.5 111.5t111.5 40.5q71 0 111 -39.5t40 -104.5 q0 -25 -5.5 -46t-16.5 -40q-13 -23 -40.5 -54t-35.5 -43q-13 -17 -19 -37t-6 -45v-7l1 -10h-105l-1 14v16q0 19 2 35t7 31q9 28 34 60l19 23q47 55 47 107q0 29 -10 42t-25 13q-18 0 -29 -15.5t-11 -52.5v-16h-107z" />
<glyph unicode="&#x1ec4;" horiz-adv-x="932" d="M121 0v1417h727v-236h-465v-327h433v-225h-433v-390h476v-239h-738zM223 1535l160 263h187l160 -263h-114l-139 138l-140 -138h-114zM257 1808q18 107 60 160t104 53q19 0 28 -2l28 -5l102 -30l21 -5l23 -1q27 0 44 17t26 52h81q-15 -101 -60 -159.5t-112 -58.5 q-16 0 -24 2l-23 5l-112 33l-14 3l-16 2q-28 0 -47.5 -16.5t-27.5 -49.5h-81z" />
<glyph unicode="&#x1ec5;" horiz-adv-x="897" d="M77 567q0 196 18.5 278t63.5 137t119 82q38 14 81.5 21.5t94.5 7.5q98 0 170 -30t118 -91q39 -51 57 -134q8 -39 12.5 -104.5t4.5 -154.5v-81h-484l-3 -26v-42q0 -152 28 -213t96 -61q65 0 94.5 50t29.5 159h232l1 -21l1 -20q0 -183 -87 -268t-276 -85q-98 0 -165.5 25 t-111.5 78q-50 59 -73 155q-10 46 -15.5 130.5t-5.5 207.5zM194 1178l160 262h188l160 -262h-114l-140 138l-140 -138h-114zM234 1459q18 108 60 161t104 53q19 0 28 -2l28 -6l102 -30l21 -5l23 -1q27 0 44 17t26 52h81q-15 -101 -60 -159.5t-112 -58.5q-16 0 -24 2l-23 6 l-112 32l-14 4l-16 1q-28 0 -47.5 -16.5t-27.5 -49.5h-81zM328 696l1 -29h240v45q0 110 -27 151t-94 41q-64 0 -92 -42t-28 -150v-16z" />
<glyph unicode="&#x1ec6;" horiz-adv-x="932" d="M121 0v1417h727v-236h-465v-327h433v-225h-433v-390h476v-239h-738zM223 1535l160 263h187l160 -263h-114l-139 138l-140 -138h-114zM413 -141h202v-218h-202v218z" />
<glyph unicode="&#x1ec7;" horiz-adv-x="897" d="M77 567q0 196 18.5 278t63.5 137t119 82q38 14 81.5 21.5t94.5 7.5q98 0 170 -30t118 -91q39 -51 57 -134q8 -39 12.5 -104.5t4.5 -154.5v-81h-484l-3 -26v-42q0 -152 28 -213t96 -61q65 0 94.5 50t29.5 159h232l1 -21l1 -20q0 -183 -87 -268t-276 -85q-98 0 -165.5 25 t-111.5 78q-50 59 -73 155q-10 46 -15.5 130.5t-5.5 207.5zM194 1178l160 262h188l160 -262h-114l-140 138l-140 -138h-114zM328 696l1 -29h240v45q0 110 -27 151t-94 41q-64 0 -92 -42t-28 -150v-16zM346 -141h202v-218h-202v218z" />
<glyph unicode="&#x1ec8;" horiz-adv-x="505" d="M121 0v1417h264v-1417h-264zM130 1754v18q0 71 38 111.5t112 40.5q71 0 111 -39.5t40 -105.5q0 -25 -5.5 -46t-17.5 -39q-12 -23 -40 -54.5t-36 -43.5q-13 -16 -19 -36.5t-6 -45.5v-6l1 -10h-104l-2 14v15q0 20 2.5 36t7.5 30q9 29 34 60l18 23q48 55 48 108 q0 28 -10 41.5t-26 13.5q-17 0 -28.5 -15.5t-11.5 -52.5v-17h-106z" />
<glyph unicode="&#x1ec9;" horiz-adv-x="456" d="M93 1409v17q0 71 38 111.5t112 40.5q71 0 111.5 -39.5t40.5 -105.5q0 -24 -6 -45.5t-16 -39.5q-14 -23 -41.5 -54.5t-36.5 -43.5q-12 -16 -18.5 -36.5t-6.5 -45.5v-6l1 -10h-104l-1 14v15q0 20 2 36t7 31q9 28 34 59l18 23q48 56 48 108q0 28 -10 41.5t-26 13.5 q-17 0 -27.5 -15.5t-10.5 -52.5v-16h-108zM106 0v1064h245v-1064h-245z" />
<glyph unicode="&#x1eca;" horiz-adv-x="505" d="M121 0v1417h264v-1417h-264zM152 -141h202v-218h-202v218z" />
<glyph unicode="&#x1ecb;" horiz-adv-x="456" d="M106 0v1064h245v-1064h-245zM106 1196v221h245v-221h-245zM127 -141h202v-218h-202v218z" />
<glyph unicode="&#x1ecc;" horiz-adv-x="1105" d="M92 708q0 230 20.5 362t66.5 201q61 97 147 138.5t226 41.5q138 0 224 -41t150 -139q43 -67 65 -204q10 -64 15.5 -155t5.5 -204q0 -229 -21 -362t-65 -201q-63 -97 -148.5 -138t-225.5 -41q-138 0 -224 41.5t-149 137.5q-44 68 -66 203q-10 65 -15.5 156t-5.5 204z M362 708q0 -350 40.5 -440t151.5 -90q107 0 147.5 88.5t40.5 441.5q0 355 -40.5 444.5t-149.5 89.5t-150 -90q-20 -45 -30 -154.5t-10 -289.5zM451 -141h202v-218h-202v218z" />
<glyph unicode="&#x1ecd;" horiz-adv-x="900" d="M75 532q0 321 83.5 441t291.5 120q210 0 292.5 -119t82.5 -442q0 -321 -82.5 -441t-292.5 -120q-207 0 -291 119t-84 442zM328 518q0 -246 24.5 -302t95.5 -56q74 0 99 52q13 26 19.5 92.5t6.5 177.5v43v61q0 210 -27 262q-24 55 -96 55q-69 0 -95.5 -50t-26.5 -237v-73 v-25zM346 -141h202v-218h-202v218z" />
<glyph unicode="&#x1ece;" horiz-adv-x="1105" d="M92 708q0 230 20.5 362t66.5 201q61 97 147 138.5t226 41.5q138 0 224 -41t150 -139q43 -67 65 -204q10 -64 15.5 -155t5.5 -204q0 -229 -21 -362t-65 -201q-63 -97 -148.5 -138t-225.5 -41q-138 0 -224 41.5t-149 137.5q-44 68 -66 203q-10 65 -15.5 156t-5.5 204z M362 708q0 -350 40.5 -440t151.5 -90q107 0 147.5 88.5t40.5 441.5q0 355 -40.5 444.5t-149.5 89.5t-150 -90q-20 -45 -30 -154.5t-10 -289.5zM401 1754v18q0 71 38 111.5t113 40.5q70 0 110.5 -39.5t40.5 -105.5q0 -25 -5.5 -46t-16.5 -39q-14 -23 -41 -54.5t-36 -43.5 q-12 -16 -18.5 -36.5t-6.5 -45.5l1 -6v-10h-104l-2 14v15q0 20 2 36t7 30q10 29 34 60l19 23q48 55 48 108q0 28 -10 41.5t-26 13.5q-18 0 -28.5 -15.5t-10.5 -52.5v-17h-108z" />
<glyph unicode="&#x1ecf;" horiz-adv-x="900" d="M75 532q0 321 83.5 441t291.5 120q210 0 292.5 -119t82.5 -442q0 -321 -82.5 -441t-292.5 -120q-207 0 -291 119t-84 442zM313 1409v17q0 71 38 111.5t112 40.5q71 0 111 -39.5t40 -105.5q0 -24 -5.5 -45.5t-16.5 -39.5q-13 -23 -41 -54.5t-36 -43.5q-13 -16 -19 -36.5 t-6 -45.5v-6l1 -10h-105l-1 14v15q0 20 2 36t8 31q9 28 34 59l18 23q48 56 48 108q0 28 -10 41.5t-26 13.5q-17 0 -28 -15.5t-11 -52.5v-16h-107zM328 518q0 -246 24.5 -302t95.5 -56q74 0 99 52q13 26 19.5 92.5t6.5 177.5v43v61q0 210 -27 262q-24 55 -96 55 q-69 0 -95.5 -50t-26.5 -237v-73v-25z" />
<glyph unicode="&#x1ed0;" horiz-adv-x="1105" d="M92 708q0 230 20.5 362t66.5 201q61 97 147 138.5t226 41.5q138 0 224 -41t150 -139q43 -67 65 -204q10 -64 15.5 -155t5.5 -204q0 -229 -21 -362t-65 -201q-63 -97 -148.5 -138t-225.5 -41q-138 0 -224 41.5t-149 137.5q-44 68 -66 203q-10 65 -15.5 156t-5.5 204z M300 1535l160 263h188l160 -263h-114l-140 138l-140 -138h-114zM362 708q0 -350 40.5 -440t151.5 -90q107 0 147.5 88.5t40.5 441.5q0 355 -40.5 444.5t-149.5 89.5t-150 -90q-20 -45 -30 -154.5t-10 -289.5zM738 1730l160 262h235l-280 -262h-115z" />
<glyph unicode="&#x1ed1;" horiz-adv-x="900" d="M75 532q0 321 83.5 441t291.5 120q210 0 292.5 -119t82.5 -442q0 -321 -82.5 -441t-292.5 -120q-207 0 -291 119t-84 442zM196 1178l160 262h188l160 -262h-114l-140 138l-140 -138h-114zM328 518q0 -246 24.5 -302t95.5 -56q74 0 99 52q13 26 19.5 92.5t6.5 177.5v43v61 q0 210 -27 262q-24 55 -96 55q-69 0 -95.5 -50t-26.5 -237v-73v-25zM605 1372l160 262h236l-281 -262h-115z" />
<glyph unicode="&#x1ed2;" horiz-adv-x="1105" d="M92 708q0 230 20.5 362t66.5 201q61 97 147 138.5t226 41.5q138 0 224 -41t150 -139q43 -67 65 -204q10 -64 15.5 -155t5.5 -204q0 -229 -21 -362t-65 -201q-63 -97 -148.5 -138t-225.5 -41q-138 0 -224 41.5t-149 137.5q-44 68 -66 203q-10 65 -15.5 156t-5.5 204z M300 1535l160 263h188l160 -263h-114l-140 138l-140 -138h-114zM362 708q0 -350 40.5 -440t151.5 -90q107 0 147.5 88.5t40.5 441.5q0 355 -40.5 444.5t-149.5 89.5t-150 -90q-20 -45 -30 -154.5t-10 -289.5zM494 1992h236l160 -262h-115z" />
<glyph unicode="&#x1ed3;" horiz-adv-x="900" d="M75 532q0 321 83.5 441t291.5 120q210 0 292.5 -119t82.5 -442q0 -321 -82.5 -441t-292.5 -120q-207 0 -291 119t-84 442zM196 1178l160 262h188l160 -262h-114l-140 138l-140 -138h-114zM328 518q0 -246 24.5 -302t95.5 -56q74 0 99 52q13 26 19.5 92.5t6.5 177.5v43v61 q0 210 -27 262q-24 55 -96 55q-69 0 -95.5 -50t-26.5 -237v-73v-25zM377 1634h236l160 -262h-115z" />
<glyph unicode="&#x1ed4;" horiz-adv-x="1105" d="M92 708q0 230 20.5 362t66.5 201q61 97 147 138.5t226 41.5q138 0 224 -41t150 -139q43 -67 65 -204q10 -64 15.5 -155t5.5 -204q0 -229 -21 -362t-65 -201q-63 -97 -148.5 -138t-225.5 -41q-138 0 -224 41.5t-149 137.5q-44 68 -66 203q-10 65 -15.5 156t-5.5 204z M300 1535l160 263h188l160 -263h-114l-140 138l-140 -138h-114zM362 708q0 -350 40.5 -440t151.5 -90q107 0 147.5 88.5t40.5 441.5q0 355 -40.5 444.5t-149.5 89.5t-150 -90q-20 -45 -30 -154.5t-10 -289.5zM671 1967v17q0 71 38 111.5t112 40.5q70 0 110.5 -39.5 t40.5 -104.5q0 -25 -6 -46t-17 -40q-12 -23 -40 -54t-36 -43q-13 -17 -19 -37t-6 -45v-7l1 -10h-104l-2 14v16q0 19 2.5 35t7.5 31q9 28 34 60l18 23q48 55 48 107q0 29 -10 42.5t-26 13.5q-18 0 -29 -16t-11 -52v-17h-106z" />
<glyph unicode="&#x1ed5;" horiz-adv-x="900" d="M75 532q0 321 83.5 441t291.5 120q210 0 292.5 -119t82.5 -442q0 -321 -82.5 -441t-292.5 -120q-207 0 -291 119t-84 442zM196 1178l160 262h188l160 -262h-114l-140 138l-140 -138h-114zM328 518q0 -246 24.5 -302t95.5 -56q74 0 99 52q13 26 19.5 92.5t6.5 177.5v43v61 q0 210 -27 262q-24 55 -96 55q-69 0 -95.5 -50t-26.5 -237v-73v-25zM549 1612v17q0 71 38.5 111.5t111.5 40.5q71 0 111 -39.5t40 -104.5q0 -25 -5.5 -46t-16.5 -40q-13 -23 -40.5 -54t-35.5 -43q-13 -17 -19 -37t-6 -45v-7l1 -10h-105l-1 14v16q0 19 2 35t7 31q9 28 34 60 l19 23q47 55 47 107q0 29 -10 42t-25 13q-18 0 -29 -15.5t-11 -52.5v-16h-107z" />
<glyph unicode="&#x1ed6;" horiz-adv-x="1105" d="M92 708q0 230 20.5 362t66.5 201q61 97 147 138.5t226 41.5q138 0 224 -41t150 -139q43 -67 65 -204q10 -64 15.5 -155t5.5 -204q0 -229 -21 -362t-65 -201q-63 -97 -148.5 -138t-225.5 -41q-138 0 -224 41.5t-149 137.5q-44 68 -66 203q-10 65 -15.5 156t-5.5 204z M300 1535l160 263h188l160 -263h-114l-140 138l-140 -138h-114zM331 1808q19 107 60.5 160t104.5 53q18 0 27 -2l29 -5l101 -30l21 -5l23 -1q28 0 45 17t25 52h81q-14 -101 -59.5 -159.5t-112.5 -58.5q-15 0 -24 2l-23 5l-111 33l-15 3l-15 2q-29 0 -48.5 -16.5t-27.5 -49.5 h-81zM362 708q0 -350 40.5 -440t151.5 -90q107 0 147.5 88.5t40.5 441.5q0 355 -40.5 444.5t-149.5 89.5t-150 -90q-20 -45 -30 -154.5t-10 -289.5z" />
<glyph unicode="&#x1ed7;" horiz-adv-x="900" d="M75 532q0 321 83.5 441t291.5 120q210 0 292.5 -119t82.5 -442q0 -321 -82.5 -441t-292.5 -120q-207 0 -291 119t-84 442zM196 1178l160 262h188l160 -262h-114l-140 138l-140 -138h-114zM234 1459q18 108 60 161t104 53q19 0 28 -2l28 -6l102 -30l21 -5l23 -1 q27 0 44 17t26 52h81q-15 -101 -60 -159.5t-112 -58.5q-16 0 -24 2l-23 6l-112 32l-14 4l-16 1q-28 0 -47.5 -16.5t-27.5 -49.5h-81zM328 518q0 -246 24.5 -302t95.5 -56q74 0 99 52q13 26 19.5 92.5t6.5 177.5v43v61q0 210 -27 262q-24 55 -96 55q-69 0 -95.5 -50 t-26.5 -237v-73v-25z" />
<glyph unicode="&#x1ed8;" horiz-adv-x="1105" d="M92 708q0 230 20.5 362t66.5 201q61 97 147 138.5t226 41.5q138 0 224 -41t150 -139q43 -67 65 -204q10 -64 15.5 -155t5.5 -204q0 -229 -21 -362t-65 -201q-63 -97 -148.5 -138t-225.5 -41q-138 0 -224 41.5t-149 137.5q-44 68 -66 203q-10 65 -15.5 156t-5.5 204z M300 1535l160 263h188l160 -263h-114l-140 138l-140 -138h-114zM362 708q0 -350 40.5 -440t151.5 -90q107 0 147.5 88.5t40.5 441.5q0 355 -40.5 444.5t-149.5 89.5t-150 -90q-20 -45 -30 -154.5t-10 -289.5zM451 -141h202v-218h-202v218z" />
<glyph unicode="&#x1ed9;" horiz-adv-x="900" d="M75 532q0 321 83.5 441t291.5 120q210 0 292.5 -119t82.5 -442q0 -321 -82.5 -441t-292.5 -120q-207 0 -291 119t-84 442zM196 1178l160 262h188l160 -262h-114l-140 138l-140 -138h-114zM328 518q0 -246 24.5 -302t95.5 -56q74 0 99 52q13 26 19.5 92.5t6.5 177.5v43v61 q0 210 -27 262q-24 55 -96 55q-69 0 -95.5 -50t-26.5 -237v-73v-25zM346 -141h202v-218h-202v218z" />
<glyph unicode="&#x1eda;" horiz-adv-x="1105" d="M92 708q0 230 20.5 362t66.5 201q61 97 147 138.5t226 41.5q138 0 224 -41q51 -24 94 -69q9 7 15 16q27 35 27 89v11h-99v196h183v-197q0 -90 -48 -147q-13 -15 -30 -27q4 -5 8 -11q43 -67 65 -204q10 -64 15.5 -155t5.5 -204q0 -229 -21 -362t-65 -201 q-63 -97 -148.5 -138t-225.5 -41q-138 0 -224 41.5t-149 137.5q-44 68 -66 203q-10 65 -15.5 156t-5.5 204zM362 708q0 -350 40.5 -440t151.5 -90q107 0 147.5 88.5t40.5 441.5q0 355 -40.5 444.5t-149.5 89.5t-150 -90q-20 -45 -30 -154.5t-10 -289.5zM424 1535l160 263 h236l-281 -263h-115z" />
<glyph unicode="&#x1edb;" horiz-adv-x="900" d="M75 532q0 321 83.5 441t291.5 120q198 0 283 -106q15 9 26 24q27 35 27 89v11h-99v196h183v-197q0 -90 -48 -147q-23 -26 -51 -41q54 -128 54 -390q0 -321 -82.5 -441t-292.5 -120q-207 0 -291 119t-84 442zM320 1178l160 262h236l-281 -262h-115zM328 518 q0 -246 24.5 -302t95.5 -56q74 0 99 52q13 26 19.5 92.5t6.5 177.5v43v61q0 210 -27 262q-24 55 -96 55q-69 0 -95.5 -50t-26.5 -237v-73v-25z" />
<glyph unicode="&#x1edc;" horiz-adv-x="1105" d="M92 708q0 230 20.5 362t66.5 201q61 97 147 138.5t226 41.5q138 0 224 -41q51 -24 94 -69q9 7 15 16q27 35 27 89v11h-99v196h183v-197q0 -90 -48 -147q-13 -15 -30 -27q4 -5 8 -11q43 -67 65 -204q10 -64 15.5 -155t5.5 -204q0 -229 -21 -362t-65 -201 q-63 -97 -148.5 -138t-225.5 -41q-138 0 -224 41.5t-149 137.5q-44 68 -66 203q-10 65 -15.5 156t-5.5 204zM288 1798h235l161 -263h-115zM362 708q0 -350 40.5 -440t151.5 -90q107 0 147.5 88.5t40.5 441.5q0 355 -40.5 444.5t-149.5 89.5t-150 -90q-20 -45 -30 -154.5 t-10 -289.5z" />
<glyph unicode="&#x1edd;" horiz-adv-x="900" d="M75 532q0 321 83.5 441t291.5 120q198 0 283 -106q15 9 26 24q27 35 27 89v11h-99v196h183v-197q0 -90 -48 -147q-23 -26 -51 -41q54 -128 54 -390q0 -321 -82.5 -441t-292.5 -120q-207 0 -291 119t-84 442zM184 1440h236l160 -262h-115zM328 518q0 -246 24.5 -302 t95.5 -56q74 0 99 52q13 26 19.5 92.5t6.5 177.5v43v61q0 210 -27 262q-24 55 -96 55q-69 0 -95.5 -50t-26.5 -237v-73v-25z" />
<glyph unicode="&#x1ede;" horiz-adv-x="1105" d="M92 708q0 230 20.5 362t66.5 201q61 97 147 138.5t226 41.5q138 0 224 -41q51 -24 94 -69q9 7 15 16q27 35 27 89v11h-99v196h183v-197q0 -90 -48 -147q-13 -15 -30 -27q4 -5 8 -11q43 -67 65 -204q10 -64 15.5 -155t5.5 -204q0 -229 -21 -362t-65 -201 q-63 -97 -148.5 -138t-225.5 -41q-138 0 -224 41.5t-149 137.5q-44 68 -66 203q-10 65 -15.5 156t-5.5 204zM362 708q0 -350 40.5 -440t151.5 -90q107 0 147.5 88.5t40.5 441.5q0 355 -40.5 444.5t-149.5 89.5t-150 -90q-20 -45 -30 -154.5t-10 -289.5zM401 1754v18 q0 71 38 111.5t113 40.5q70 0 110.5 -39.5t40.5 -105.5q0 -25 -5.5 -46t-16.5 -39q-14 -23 -41 -54.5t-36 -43.5q-12 -16 -18.5 -36.5t-6.5 -45.5l1 -6v-10h-104l-2 14v15q0 20 2 36t7 30q10 29 34 60l19 23q48 55 48 108q0 28 -10 41.5t-26 13.5q-18 0 -28.5 -15.5 t-10.5 -52.5v-17h-108z" />
<glyph unicode="&#x1edf;" horiz-adv-x="900" d="M75 532q0 321 83.5 441t291.5 120q198 0 283 -106q15 9 26 24q27 35 27 89v11h-99v196h183v-197q0 -90 -48 -147q-23 -26 -51 -41q54 -128 54 -390q0 -321 -82.5 -441t-292.5 -120q-207 0 -291 119t-84 442zM313 1409v17q0 71 38 111.5t112 40.5q71 0 111 -39.5 t40 -105.5q0 -24 -5.5 -45.5t-16.5 -39.5q-13 -23 -41 -54.5t-36 -43.5q-13 -16 -19 -36.5t-6 -45.5v-6l1 -10h-105l-1 14v15q0 20 2 36t8 31q9 28 34 59l18 23q48 56 48 108q0 28 -10 41.5t-26 13.5q-17 0 -28 -15.5t-11 -52.5v-16h-107zM328 518q0 -246 24.5 -302 t95.5 -56q74 0 99 52q13 26 19.5 92.5t6.5 177.5v43v61q0 210 -27 262q-24 55 -96 55q-69 0 -95.5 -50t-26.5 -237v-73v-25z" />
<glyph unicode="&#x1ee0;" horiz-adv-x="1105" d="M92 708q0 230 20.5 362t66.5 201q61 97 147 138.5t226 41.5q138 0 224 -41q51 -24 94 -69q9 7 15 16q27 35 27 89v11h-99v196h183v-197q0 -90 -48 -147q-13 -15 -30 -27q4 -5 8 -11q43 -67 65 -204q10 -64 15.5 -155t5.5 -204q0 -229 -21 -362t-65 -201 q-63 -97 -148.5 -138t-225.5 -41q-138 0 -224 41.5t-149 137.5q-44 68 -66 203q-10 65 -15.5 156t-5.5 204zM295 1547q19 107 60.5 160t104.5 53q18 0 28 -2l28 -5l101 -31l21 -4l23 -1q28 0 45 17t25 52h81q-14 -101 -59.5 -159.5t-112.5 -58.5q-15 0 -24 2l-23 5l-111 32 l-15 4l-15 2q-29 0 -48 -16.5t-28 -49.5h-81zM362 708q0 -350 40.5 -440t151.5 -90q107 0 147.5 88.5t40.5 441.5q0 355 -40.5 444.5t-149.5 89.5t-150 -90q-20 -45 -30 -154.5t-10 -289.5z" />
<glyph unicode="&#x1ee1;" horiz-adv-x="900" d="M75 532q0 321 83.5 441t291.5 120q198 0 283 -106q15 9 26 24q27 35 27 89v11h-99v196h183v-197q0 -90 -48 -147q-23 -26 -51 -41q54 -128 54 -390q0 -321 -82.5 -441t-292.5 -120q-207 0 -291 119t-84 442zM191 1189q19 107 60.5 160t104.5 53q18 0 28 -2l28 -5l101 -31 l22 -4l23 -1q27 0 44 17t25 52h81q-14 -101 -59 -159.5t-113 -58.5q-15 0 -24 2l-23 5l-111 32l-15 4l-15 2q-29 0 -48 -16.5t-28 -49.5h-81zM328 518q0 -246 24.5 -302t95.5 -56q74 0 99 52q13 26 19.5 92.5t6.5 177.5v43v61q0 210 -27 262q-24 55 -96 55q-69 0 -95.5 -50 t-26.5 -237v-73v-25z" />
<glyph unicode="&#x1ee2;" horiz-adv-x="1105" d="M92 708q0 230 20.5 362t66.5 201q61 97 147 138.5t226 41.5q138 0 224 -41q51 -24 94 -69q9 7 15 16q27 35 27 89v11h-99v196h183v-197q0 -90 -48 -147q-13 -15 -30 -27q4 -5 8 -11q43 -67 65 -204q10 -64 15.5 -155t5.5 -204q0 -229 -21 -362t-65 -201 q-63 -97 -148.5 -138t-225.5 -41q-138 0 -224 41.5t-149 137.5q-44 68 -66 203q-10 65 -15.5 156t-5.5 204zM362 708q0 -350 40.5 -440t151.5 -90q107 0 147.5 88.5t40.5 441.5q0 355 -40.5 444.5t-149.5 89.5t-150 -90q-20 -45 -30 -154.5t-10 -289.5zM451 -141h202v-218 h-202v218z" />
<glyph unicode="&#x1ee3;" horiz-adv-x="900" d="M75 532q0 321 83.5 441t291.5 120q198 0 283 -106q15 9 26 24q27 35 27 89v11h-99v196h183v-197q0 -90 -48 -147q-23 -26 -51 -41q54 -128 54 -390q0 -321 -82.5 -441t-292.5 -120q-207 0 -291 119t-84 442zM328 518q0 -246 24.5 -302t95.5 -56q74 0 99 52 q13 26 19.5 92.5t6.5 177.5v43v61q0 210 -27 262q-24 55 -96 55q-69 0 -95.5 -50t-26.5 -237v-73v-25zM346 -141h202v-218h-202v218z" />
<glyph unicode="&#x1ee4;" horiz-adv-x="1125" d="M121 439v978h264v-955q0 -163 40 -222t142 -59q100 0 139.5 59.5t39.5 225.5v951h260v-978q0 -141 -15.5 -207t-53.5 -117q-57 -74 -151 -112q-48 -19 -102.5 -28t-120.5 -9q-242 0 -342 105t-100 368zM463 -141h202v-218h-202v218z" />
<glyph unicode="&#x1ee5;" horiz-adv-x="911" d="M104 228v836h237v-695q0 -107 24 -146.5t81 -39.5q61 0 87 45t26 157v679h248v-1064h-242v106q-37 -66 -95 -100q-27 -16 -60 -25.5t-69 -9.5q-117 0 -177 66t-60 191zM346 -141h202v-218h-202v218z" />
<glyph unicode="&#x1ee6;" horiz-adv-x="1125" d="M121 439v978h264v-955q0 -163 40 -222t142 -59q100 0 139.5 59.5t39.5 225.5v951h260v-978q0 -141 -15.5 -207t-53.5 -117q-57 -74 -151 -112q-48 -19 -102.5 -28t-120.5 -9q-242 0 -342 105t-100 368zM413 1754v18q0 71 38 111.5t112 40.5q71 0 111 -39.5t40 -105.5 q0 -25 -5.5 -46t-16.5 -39q-13 -23 -40.5 -54.5t-36.5 -43.5q-12 -16 -18 -36.5t-6 -45.5v-6l1 -10h-105l-1 14v15q0 20 1.5 36t7.5 30q9 29 34 60l18 23q48 55 48 108q0 28 -10 41.5t-26 13.5q-17 0 -28 -15.5t-11 -52.5v-17h-107z" />
<glyph unicode="&#x1ee7;" horiz-adv-x="911" d="M104 228v836h237v-695q0 -107 24 -146.5t81 -39.5q61 0 87 45t26 157v679h248v-1064h-242v106q-37 -66 -95 -100q-27 -16 -60 -25.5t-69 -9.5q-117 0 -177 66t-60 191zM313 1409v17q0 71 38 111.5t112 40.5q71 0 111 -39.5t40 -105.5q0 -24 -5.5 -45.5t-16.5 -39.5 q-13 -23 -41 -54.5t-36 -43.5q-13 -16 -19 -36.5t-6 -45.5v-6l1 -10h-105l-1 14v15q0 20 2 36t8 31q9 28 34 59l18 23q48 56 48 108q0 28 -10 41.5t-26 13.5q-17 0 -28 -15.5t-11 -52.5v-16h-107z" />
<glyph unicode="&#x1ee8;" horiz-adv-x="1125" d="M121 439v978h264v-955q0 -163 40 -222t142 -59q100 0 139.5 59.5t39.5 225.5v951h260v-75q8 7 14 15q27 35 27 89v11h-98v196h183v-197q0 -90 -49 -147q-31 -36 -77 -52v-818q0 -141 -15.5 -207t-53.5 -117q-57 -74 -151 -112q-48 -19 -102.5 -28t-120.5 -9 q-242 0 -342 105t-100 368zM433 1535l160 263h236l-281 -263h-115z" />
<glyph unicode="&#x1ee9;" horiz-adv-x="911" d="M104 228v836h237v-695q0 -107 24 -146.5t81 -39.5q61 0 87 45t26 157v679h248v-65q5 6 11 12q27 35 27 89v11h-99v196h183v-197q0 -90 -49 -147q-29 -35 -73 -51v-912h-242v106q-37 -66 -95 -100q-27 -16 -60 -25.5t-69 -9.5q-117 0 -177 66t-60 191zM327 1178l160 262 h235l-280 -262h-115z" />
<glyph unicode="&#x1eea;" horiz-adv-x="1125" d="M121 439v978h264v-955q0 -163 40 -222t142 -59q100 0 139.5 59.5t39.5 225.5v951h260v-75q8 7 14 15q27 35 27 89v11h-98v196h183v-197q0 -90 -49 -147q-31 -36 -77 -52v-818q0 -141 -15.5 -207t-53.5 -117q-57 -74 -151 -112q-48 -19 -102.5 -28t-120.5 -9 q-242 0 -342 105t-100 368zM297 1798h236l160 -263h-115z" />
<glyph unicode="&#x1eeb;" horiz-adv-x="911" d="M104 228v836h237v-695q0 -107 24 -146.5t81 -39.5q61 0 87 45t26 157v679h248v-1064h-242v106q-37 -66 -95 -100q-27 -16 -60 -25.5t-69 -9.5q-117 0 -177 66t-60 191zM190 1440h236l160 -262h-115zM746 898v74q45 4 72 39t27 89v11h-99v196h183v-197q0 -90 -48.5 -147 t-134.5 -65z" />
<glyph unicode="&#x1eec;" horiz-adv-x="1125" d="M121 439v978h264v-955q0 -163 40 -222t142 -59q100 0 139.5 59.5t39.5 225.5v951h260v-75q8 7 14 15q27 35 27 89v11h-98v196h183v-197q0 -90 -49 -147q-31 -36 -77 -52v-818q0 -141 -15.5 -207t-53.5 -117q-57 -74 -151 -112q-48 -19 -102.5 -28t-120.5 -9 q-242 0 -342 105t-100 368zM413 1754v18q0 71 38 111.5t112 40.5q71 0 111 -39.5t40 -105.5q0 -25 -5.5 -46t-16.5 -39q-13 -23 -40.5 -54.5t-36.5 -43.5q-12 -16 -18 -36.5t-6 -45.5v-6l1 -10h-105l-1 14v15q0 20 1.5 36t7.5 30q9 29 34 60l18 23q48 55 48 108 q0 28 -10 41.5t-26 13.5q-17 0 -28 -15.5t-11 -52.5v-17h-107z" />
<glyph unicode="&#x1eed;" horiz-adv-x="911" d="M104 228v836h237v-695q0 -107 24 -146.5t81 -39.5q61 0 87 45t26 157v679h248v-65q5 6 11 12q27 35 27 89v11h-99v196h183v-197q0 -90 -49 -147q-29 -35 -73 -51v-912h-242v106q-37 -66 -95 -100q-27 -16 -60 -25.5t-69 -9.5q-117 0 -177 66t-60 191zM313 1409v17 q0 71 38 111.5t112 40.5q71 0 111 -39.5t40 -105.5q0 -24 -5.5 -45.5t-16.5 -39.5q-13 -23 -41 -54.5t-36 -43.5q-13 -16 -19 -36.5t-6 -45.5v-6l1 -10h-105l-1 14v15q0 20 2 36t8 31q9 28 34 59l18 23q48 56 48 108q0 28 -10 41.5t-26 13.5q-17 0 -28 -15.5t-11 -52.5v-16 h-107z" />
<glyph unicode="&#x1eee;" horiz-adv-x="1125" d="M121 439v978h264v-955q0 -163 40 -222t142 -59q100 0 139.5 59.5t39.5 225.5v951h260v-75q8 7 14 15q27 35 27 89v11h-98v196h183v-197q0 -90 -49 -147q-31 -36 -77 -52v-818q0 -141 -15.5 -207t-53.5 -117q-57 -74 -151 -112q-48 -19 -102.5 -28t-120.5 -9 q-242 0 -342 105t-100 368zM305 1547q19 107 61 160t104 53q19 0 28 -2l28 -5l101 -31l22 -4l23 -1q27 0 44 17t26 52h80q-14 -101 -59 -159.5t-113 -58.5q-15 0 -23 2l-23 5l-112 32l-15 4l-15 2q-29 0 -48 -16.5t-28 -49.5h-81z" />
<glyph unicode="&#x1eef;" horiz-adv-x="911" d="M104 228v836h237v-695q0 -107 24 -146.5t81 -39.5q61 0 87 45t26 157v679h248v-65q5 6 11 12q27 35 27 89v11h-99v196h183v-197q0 -90 -49 -147q-29 -35 -73 -51v-912h-242v106q-37 -66 -95 -100q-27 -16 -60 -25.5t-69 -9.5q-117 0 -177 66t-60 191zM191 1189 q19 107 60.5 160t104.5 53q18 0 28 -2l28 -5l101 -31l22 -4l23 -1q27 0 44 17t25 52h81q-14 -101 -59 -159.5t-113 -58.5q-15 0 -24 2l-23 5l-111 32l-15 4l-15 2q-29 0 -48 -16.5t-28 -49.5h-81z" />
<glyph unicode="&#x1ef0;" horiz-adv-x="1125" d="M121 439v978h264v-955q0 -163 40 -222t142 -59q100 0 139.5 59.5t39.5 225.5v951h260v-75q8 7 14 15q27 35 27 89v11h-98v196h183v-197q0 -90 -49 -147q-31 -36 -77 -52v-818q0 -141 -15.5 -207t-53.5 -117q-57 -74 -151 -112q-48 -19 -102.5 -28t-120.5 -9 q-242 0 -342 105t-100 368zM463 -141h202v-218h-202v218z" />
<glyph unicode="&#x1ef1;" horiz-adv-x="911" d="M104 228v836h237v-695q0 -107 24 -146.5t81 -39.5q61 0 87 45t26 157v679h248v-65q5 6 11 12q27 35 27 89v11h-99v196h183v-197q0 -90 -49 -147q-29 -35 -73 -51v-912h-242v106q-37 -66 -95 -100q-27 -16 -60 -25.5t-69 -9.5q-117 0 -177 66t-60 191zM346 -141h202v-218 h-202v218z" />
<glyph unicode="&#x1ef2;" horiz-adv-x="1035" d="M17 1417h292l214 -533l212 533h284l-365 -816v-601h-266v601zM297 1798h236l160 -263h-115z" />
<glyph unicode="&#x1ef3;" horiz-adv-x="836" d="M18 1064h261l147 -768l143 768h249l-277 -1164q-36 -152 -97.5 -204t-195.5 -52h-14q-9 0 -15.5 0.5t-12.5 1.5l-44 5v184h16l23 -1q53 0 77 17t24 55l-3 29l-3 16.5t-4 15.5zM132 1440h235l160 -262h-115z" />
<glyph unicode="&#x1ef4;" horiz-adv-x="1035" d="M17 1417h292l214 -533l212 533h284l-365 -816v-601h-266v601zM426 -141h202v-218h-202v218z" />
<glyph unicode="&#x1ef5;" horiz-adv-x="836" d="M18 1064h261l147 -768l143 768h249l-277 -1164q-36 -152 -97.5 -204t-195.5 -52h-14q-9 0 -15.5 0.5t-12.5 1.5l-44 5v184h16l23 -1q53 0 77 17t24 55l-3 29l-3 16.5t-4 15.5zM566 -141h202v-218h-202v218z" />
<glyph unicode="&#x1ef6;" horiz-adv-x="1035" d="M17 1417h292l214 -533l212 533h284l-365 -816v-601h-266v601zM401 1754v18q0 71 38 111.5t113 40.5q70 0 110.5 -39.5t40.5 -105.5q0 -25 -5.5 -46t-16.5 -39q-14 -23 -41 -54.5t-36 -43.5q-12 -16 -18.5 -36.5t-6.5 -45.5l1 -6v-10h-104l-2 14v15q0 20 2 36t7 30 q10 29 34 60l19 23q48 55 48 108q0 28 -10 41.5t-26 13.5q-18 0 -28.5 -15.5t-10.5 -52.5v-17h-108z" />
<glyph unicode="&#x1ef7;" horiz-adv-x="836" d="M18 1064h261l147 -768l143 768h249l-277 -1164q-36 -152 -97.5 -204t-195.5 -52h-14q-9 0 -15.5 0.5t-12.5 1.5l-44 5v184h16l23 -1q53 0 77 17t24 55l-3 29l-3 16.5t-4 15.5zM287 1409v17q0 71 38 111.5t112 40.5q71 0 111 -39.5t40 -105.5q0 -24 -5.5 -45.5 t-16.5 -39.5q-13 -23 -40.5 -54.5t-36.5 -43.5q-12 -16 -18 -36.5t-6 -45.5v-6l1 -10h-105l-1 14v15q0 20 1.5 36t7.5 31q9 28 34 59l18 23q48 56 48 108q0 28 -10 41.5t-26 13.5q-17 0 -28 -15.5t-11 -52.5v-16h-107z" />
<glyph unicode="&#x1ef8;" horiz-adv-x="1035" d="M17 1417h292l214 -533l212 533h284l-365 -816v-601h-266v601zM295 1547q19 107 60.5 160t104.5 53q18 0 28 -2l28 -5l101 -31l21 -4l23 -1q28 0 45 17t25 52h81q-14 -101 -59.5 -159.5t-112.5 -58.5q-15 0 -24 2l-23 5l-111 32l-15 4l-15 2q-29 0 -48 -16.5t-28 -49.5 h-81z" />
<glyph unicode="&#x1ef9;" horiz-adv-x="836" d="M18 1064h261l147 -768l143 768h249l-277 -1164q-36 -152 -97.5 -204t-195.5 -52h-14q-9 0 -15.5 0.5t-12.5 1.5l-44 5v184h16l23 -1q53 0 77 17t24 55l-3 29l-3 16.5t-4 15.5zM191 1189q19 107 60.5 160t104.5 53q18 0 28 -2l28 -5l101 -31l22 -4l23 -1q27 0 44 17t25 52 h81q-14 -101 -59 -159.5t-113 -58.5q-15 0 -24 2l-23 5l-111 32l-15 4l-15 2q-29 0 -48 -16.5t-28 -49.5h-81z" />
<glyph unicode="&#x2000;" horiz-adv-x="1077" />
<glyph unicode="&#x2001;" horiz-adv-x="2154" />
<glyph unicode="&#x2002;" horiz-adv-x="1077" />
<glyph unicode="&#x2003;" horiz-adv-x="2154" />
<glyph unicode="&#x2004;" horiz-adv-x="718" />
<glyph unicode="&#x2005;" horiz-adv-x="538" />
<glyph unicode="&#x2006;" horiz-adv-x="359" />
<glyph unicode="&#x2007;" horiz-adv-x="359" />
<glyph unicode="&#x2008;" horiz-adv-x="269" />
<glyph unicode="&#x2009;" horiz-adv-x="430" />
<glyph unicode="&#x200a;" horiz-adv-x="119" />
<glyph unicode="&#x2010;" horiz-adv-x="618" d="M85 422v220h449v-220h-449z" />
<glyph unicode="&#x2011;" horiz-adv-x="618" d="M85 422v220h449v-220h-449z" />
<glyph unicode="&#x2012;" horiz-adv-x="618" d="M85 422v220h449v-220h-449z" />
<glyph unicode="&#x2013;" horiz-adv-x="1193" d="M85 422v220h1024v-220h-1024z" />
<glyph unicode="&#x2014;" horiz-adv-x="2217" d="M85 422v220h2048v-220h-2048z" />
<glyph unicode="&#x2018;" horiz-adv-x="471" d="M111 955v255q0 95 61.5 161t166.5 80v-90q-54 -7 -86 -47.5t-32 -101.5v-16h117v-241h-227z" />
<glyph unicode="&#x2019;" horiz-adv-x="471" d="M111 924v90q56 7 86.5 46t30.5 103v15h-117v239h228v-252q0 -97 -61 -161.5t-167 -79.5z" />
<glyph unicode="&#x201c;" horiz-adv-x="834" d="M111 955v255q0 95 61.5 161t166.5 80v-90q-54 -7 -86 -47.5t-32 -101.5v-16h117v-241h-227zM475 955v255q0 95 62 161t166 80v-90q-54 -7 -86.5 -47.5t-32.5 -101.5v-16h117v-241h-226z" />
<glyph unicode="&#x201d;" horiz-adv-x="834" d="M111 924v90q56 7 86.5 46t30.5 103v15h-117v239h228v-252q0 -97 -61 -161.5t-167 -79.5zM475 924v90q56 7 86.5 46t30.5 103v15h-117v239h228v-252q0 -97 -61 -161.5t-167 -79.5z" />
<glyph unicode="&#x2026;" horiz-adv-x="1884" d="M196 0v254h237v-254h-237zM823 0v254h238v-254h-238zM1453 0v254h237v-254h-237z" />
<glyph unicode="&#x202f;" horiz-adv-x="430" />
<glyph unicode="&#x205f;" horiz-adv-x="538" />
<glyph unicode="&#xe000;" horiz-adv-x="1062" d="M0 0v1063h1063v-1063h-1063z" />
</font>
</defs>
</svg>
